<?xml version="1.0" encoding="UTF-8" standalone="no"?>
<!-- Created with Inkscape (http://www.inkscape.org/) -->

<svg
   version="1.1"
   id="svg2"
   width="454.05334"
   height="154.32001"
   viewBox="0 0 454.05334 154.32001"
   sodipodi:docname="Logo-01.eps"
   xmlns:inkscape="http://www.inkscape.org/namespaces/inkscape"
   xmlns:sodipodi="http://sodipodi.sourceforge.net/DTD/sodipodi-0.dtd"
   xmlns="http://www.w3.org/2000/svg"
   xmlns:svg="http://www.w3.org/2000/svg">
  <defs
     id="defs6" />
  <sodipodi:namedview
     id="namedview4"
     pagecolor="#ffffff"
     bordercolor="#000000"
     borderopacity="0.25"
     inkscape:showpageshadow="2"
     inkscape:pageopacity="0.0"
     inkscape:pagecheckerboard="0"
     inkscape:deskcolor="#d1d1d1" />
  <g
     id="g8"
     inkscape:groupmode="layer"
     inkscape:label="ink_ext_XXXXXX"
     transform="matrix(1.3333333,0,0,-1.3333333,0,154.32)">
    <g
       id="g10"
       transform="scale(0.1)">
      <path
         d="M 0,806.926 V 0.0117188 H 203.777 V 874.398 L 0,1157.41 V 806.926"
         style="fill:#1e1c1b;fill-opacity:1;fill-rule:nonzero;stroke:none"
         id="path12" />
      <path
         d="M 1173.67,806.926 V 0.0117188 H 969.898 V 874.398 L 1173.67,1157.41 V 806.926"
         style="fill:#1e1c1b;fill-opacity:1;fill-rule:nonzero;stroke:none"
         id="path14" />
      <path
         d="M 586.84,342.398 317.574,716.352 V 366.703 L 586.84,0.0117188 856.102,374.652 V 721.637 L 586.84,342.398"
         style="fill:#cf0f6f;fill-opacity:1;fill-rule:nonzero;stroke:none"
         id="path16" />
      <path
         d="m 1334.3,290.699 v 502.137 h 33.48 l 217.58,-247.715 217.93,247.715 h 33.47 V 290.699 H 1736.33 L 1736,581.938 1585.36,414.574 1434.73,581.938 V 290.699 H 1334.3"
         style="fill:#1e1c1b;fill-opacity:1;fill-rule:nonzero;stroke:none"
         id="path18" />
      <path
         d="m 1935.5,290.699 v 501.785 l 368.9,0.352 V 699.098 H 2035.93 V 591.984 h 201.2 V 498.59 h -201.2 V 384.438 h 267.8 V 290.699 H 1935.5"
         style="fill:#1e1c1b;fill-opacity:1;fill-rule:nonzero;stroke:none"
         id="path20" />
      <path
         d="m 2631.45,384.438 c 44.41,0 80.57,15.07 108.47,45.195 27.88,30.129 41.83,67.512 41.83,112.14 0,44.625 -13.95,82 -41.83,112.129 -27.9,30.129 -64.28,45.196 -109.13,45.196 -44.42,0 -80.57,-15.067 -108.47,-45.196 -27.9,-30.129 -41.83,-67.504 -41.83,-112.129 0,-44.628 13.93,-82.011 41.83,-112.14 27.9,-30.125 64.27,-45.195 109.13,-45.195 z m -179.43,-21.583 c -47.98,48.067 -71.96,107.727 -71.96,178.918 0,71.395 23.98,131.09 71.96,179.071 47.99,47.984 107.67,71.992 179.11,71.992 71.4,0 131.1,-24.008 179.08,-71.992 47.98,-47.981 71.96,-107.676 71.96,-179.071 0,-71.425 -23.98,-131.125 -71.96,-179.101 -47.98,-47.988 -107.68,-71.973 -179.08,-71.973 -71.44,0 -131.12,24.031 -179.11,72.156"
         style="fill:#1e1c1b;fill-opacity:1;fill-rule:nonzero;stroke:none"
         id="path22" />
      <path
         d="m 2956.84,290.699 v 502.137 h 33.47 L 3304.98,478.16 v 314.676 h 100.43 V 290.699 h -36.83 L 3057.26,602.027 V 290.699 h -100.42"
         style="fill:#1e1c1b;fill-opacity:1;fill-rule:nonzero;stroke:none"
         id="path24" />
      <path
         d="m 1380.68,153.301 43.51,-112.2424 44.32,112.2424 h 32.69 L 1440.02,0.109375 h -30.64 L 1348,153.301 h 32.68"
         style="fill:#cf0f6f;fill-opacity:1;fill-rule:nonzero;stroke:none"
         id="path26" />
      <path
         d="m 1658.73,112.461 -23.28,-58.2227 h 45.96 z M 1581.32,0.109375 1642.59,153.301 h 30.64 L 1734.41,0.21875 1701.83,0.109375 1692.64,23.6094 H 1623.2 L 1614,0.109375 h -32.68"
         style="fill:#cf0f6f;fill-opacity:1;fill-rule:nonzero;stroke:none"
         id="path28" />
      <path
         d="M 1851,153.301 V 28.7109 h 81.71 V 0.109375 H 1820.37 V 153.301 H 1851"
         style="fill:#cf0f6f;fill-opacity:1;fill-rule:nonzero;stroke:none"
         id="path30" />
      <path
         d="M 2051.63,153.301 V 28.7109 h 81.71 V 0.109375 H 2020.99 V 153.301 h 30.64"
         style="fill:#cf0f6f;fill-opacity:1;fill-rule:nonzero;stroke:none"
         id="path32" />
      <path
         d="M 2220.9,0.109375 V 153.219 l 112.57,0.082 v -28.602 h -81.93 V 92.0313 h 61.39 v -28.5 h -61.39 V 28.7109 h 81.72 V 0.109375 H 2220.9"
         style="fill:#cf0f6f;fill-opacity:1;fill-rule:nonzero;stroke:none"
         id="path34" />
      <path
         d="m 2418.06,153.301 h 35.96 l 35.54,-50.02 36.37,50.02 h 35.12 L 2504.88,76.7109 V 0.109375 h -30.64 V 76.7109 l -56.18,76.5901"
         style="fill:#cf0f6f;fill-opacity:1;fill-rule:nonzero;stroke:none"
         id="path36" />
      <path d="M25 125V43h20v12.8c3.3-4.4 6.8-7.7 10.6-9.9 3.8-2.2 8.1-3.3 12.8-3.3 4.6 0 8.7 1.1 12.3 3.3 3.6 2.2 6.4 5.1 8.5 8.9 2 3.7 3 8.1 3 13.1V125h-21V73.1c0-3.6-1-6.5-2.9-8.8-2-2.3-4.7-3.5-8.3-3.5-3.7 0-6.7 1.2-9 3.5-2.3 2.3-3.4 5.2-3.4 8.8V125H25z" fill="#1e1c1b"/>
    <path d="M151.3 128c-6.8 0-12.9-1.6-18.2-4.7-5.3-3.1-9.5-7.3-12.6-12.7-3-5.4-4.5-11.3-4.5-17.9s1.5-12.5 4.5-17.8c3-5.3 7.2-9.4 12.6-12.4 5.3-3 11.4-4.5 18.2-4.5 6.9 0 13.1 1.5 18.5 4.5 5.4 3 9.6 7.1 12.6 12.4 3 5.3 4.5 11.2 4.5 17.8s-1.5 12.5-4.5 17.9c-3 5.4-7.2 9.6-12.6 12.7-5.4 3.1-11.6 4.7-18.5 4.7zm0-18c4.5 0 8.2-1.5 11.1-4.6 2.9-3 4.3-7.2 4.3-12.4 0-5.2-1.4-9.3-4.3-12.3-2.9-3-6.6-4.5-11.1-4.5s-8.2 1.5-11 4.5c-2.9 3-4.3 7.1-4.3 12.3 0 5.3 1.4 9.4 4.3 12.4 2.8 3.1 6.5 4.6 11 4.6z" fill="#1e1c1b"/>
    <path d="M200 125V47.2h20v13c2.2-4.2 5.4-7.5 9.4-9.8 4.1-2.3 8.9-3.5 14.5-3.5v21c-4.2 0-7.8 1.1-10.7 3.2-2.9 2.1-5.2 5-6.7 8.6V125h-26.5z" fill="#1e1c1b"/>
    <path d="M272.8 68.1c.2-6.2 2-11.1 5.4-14.6 3.4-3.6 8.3-5.3 14.5-5.3 6.1 0 10.9 1.8 14.2 5.5 3.3 3.7 5 9.1 5 16.3V110h14v15H280V110h13.4V70.5c0-3-0.7-5.3-2.1-7-1.4-1.7-3.3-2.5-5.8-2.5-2.4 0-4.3 0.8-5.6 2.5-1.3 1.6-2 4.1-2.1 7.5l-14.9-0.1z" fill="#1e1c1b"/>
    </g>
  </g>
</svg>
