<?xml version="1.0" encoding="utf-8"?>
<!-- Generator: Adobe Illustrator 17.0.0, SVG Export Plug-In . SVG Version: 6.00 Build 0)  -->
<!DOCTYPE svg PUBLIC "-//W3C//DTD SVG 1.1//EN" "http://www.w3.org/Graphics/SVG/1.1/DTD/svg11.dtd">
<svg version="1.1" id="Layer_1" xmlns="http://www.w3.org/2000/svg" xmlns:xlink="http://www.w3.org/1999/xlink" x="0px" y="0px"
	 width="1000px" height="800px" viewBox="0 0 1000 800" enable-background="new 0 0 1000 800" xml:space="preserve">
<g>
	<path fill="#008CAD" d="M467.711,438.156h-17.574c-1.73,0-2.595-0.866-2.595-2.596v-90.262c0-1.73,0.865-2.596,2.595-2.596h35.413
		c6.346,0,11.926,1.476,16.741,4.427c4.815,2.952,8.431,6.846,10.851,11.683c2.418,4.836,3.627,10.207,3.627,16.108
		c0,4.128-0.776,8.145-2.328,12.048c-1.555,3.906-3.673,7.356-6.357,10.352c-2.685,2.995-6.002,5.414-9.952,7.255
		c-3.95,1.842-8.144,2.764-12.581,2.764h-15.376v28.223C470.174,437.29,469.353,438.156,467.711,438.156z M470.174,363.203v23.565
		h9.918c4.437,0,7.865-1.02,10.284-3.063c2.418-2.04,3.628-4.97,3.628-8.786c0-3.817-1.21-6.722-3.628-8.72
		c-2.419-1.996-5.847-2.995-10.284-2.995H470.174z"/>
	<path fill="#008CAD" d="M577.959,369.993h-17.307c-1.73,0-2.596,0.866-2.596,2.596v5.459c-2.797-2.973-5.692-5.281-8.687-6.923
		c-2.995-1.642-6.513-2.463-10.551-2.463c-5.813,0-10.983,1.609-15.51,4.826c-1.279,0.91-2.465,1.914-3.576,2.994
		c-0.175,3.955-1.013,7.849-2.504,11.594c-1.681,4.221-4.006,8.004-6.91,11.245c-0.29,0.323-0.592,0.636-0.896,0.947
		c-0.096,1.249-0.158,2.513-0.158,3.807c0,6.478,1.208,12.392,3.628,17.74c2.418,5.348,5.891,9.63,10.416,12.846
		c4.527,3.218,9.697,4.826,15.51,4.826c7.056,0,13.468-3.129,19.238-9.386v5.459c0,1.73,0.866,2.596,2.596,2.596h17.307
		c1.641,0,2.462-0.866,2.462-2.596v-62.971C580.42,370.859,579.599,369.993,577.959,369.993z M554.726,414.192
		c-2.574,2.708-5.768,4.06-9.585,4.06c-3.818,0-7-1.341-9.552-4.027c-2.553-2.684-3.828-6.067-3.828-10.15
		c0-4.083,1.276-7.466,3.828-10.151c2.551-2.684,5.734-4.027,9.552-4.027c3.817,0,7.011,1.353,9.585,4.06s3.861,6.081,3.861,10.119
		C558.588,408.113,557.3,411.487,554.726,414.192z"/>
	<path fill="#008CAD" d="M597.105,415.39c4.881,3.728,9.386,5.592,13.512,5.592c1.953,0,3.417-0.232,4.394-0.698
		s1.464-1.321,1.464-2.563c0-0.975-0.565-1.851-1.697-2.629c-1.131-0.776-2.607-1.497-4.427-2.162
		c-1.82-0.667-3.827-1.376-6.024-2.131c-2.197-0.754-4.404-1.718-6.624-2.895c-2.219-1.175-4.238-2.539-6.057-4.093
		c-1.82-1.554-3.295-3.573-4.427-6.058c-1.132-2.484-1.697-5.281-1.697-8.387c0-5.991,2.43-10.938,7.289-14.844
		c4.859-3.905,10.883-5.858,18.073-5.858c4.614,0,8.93,0.788,12.947,2.363c4.015,1.576,7.244,3.54,9.685,5.891
		c0.975,1.243,0.887,2.442-0.266,3.595l-8.786,9.386c-0.622,0.622-1.243,0.932-1.865,0.932c-0.622,0-1.264-0.221-1.929-0.665
		c-3.552-2.085-6.769-3.129-9.652-3.129c-3.374,0-5.059,0.776-5.059,2.33c0,0.755,0.565,1.476,1.697,2.162
		c1.131,0.689,2.607,1.343,4.427,1.964c1.819,0.622,3.827,1.332,6.024,2.131c2.197,0.799,4.404,1.808,6.624,3.028
		c2.218,1.222,4.237,2.641,6.057,4.261c1.82,1.62,3.295,3.706,4.427,6.257s1.697,5.403,1.697,8.553c0,6.036-2.43,11.173-7.289,15.41
		c-4.859,4.24-11.349,6.357-19.47,6.357c-10.474,0-19.105-3.661-25.895-10.983c-1.11-1.464-0.977-2.885,0.399-4.261l8.188-8.853
		c0.621-0.621,1.309-0.932,2.064-0.932C595.75,414.459,596.482,414.77,597.105,415.39z"/>
	<path fill="#008CAD" d="M682.706,417.321c-0.399-0.665-0.932-0.997-1.597-0.997c-0.399,0-0.731,0.043-0.997,0.133
		c-2.487,1.198-4.66,1.796-6.523,1.796c-3.818,0-5.725-1.952-5.725-5.858v-21.966h14.366v-17.798c0-0.995,0.201-1.872,0.542-2.638
		h-14.908v-17.572c0-1.732-0.866-2.596-2.596-2.596h-17.307c-1.642,0-2.463,0.864-2.463,2.596v17.572h-5.725
		c-1.73,0-2.596,0.866-2.596,2.596v15.244c0,0.799,0.233,1.431,0.7,1.898c0.465,0.465,1.098,0.698,1.896,0.698h5.725v24.961
		c0,7.678,2.086,13.614,6.257,17.807c4.171,4.193,10.095,6.29,17.773,6.29c6.656,0,12.914-1.664,18.772-4.992
		c0.679-0.363,1.09-0.843,1.252-1.432c-3.267-3.931-5.448-8.982-6.528-15.082L682.706,417.321z"/>
	<path fill="#008CAD" d="M754.353,372.631v61.889c0,11.724-3.595,21.329-10.788,28.815c-7.192,7.484-16.561,11.227-28.104,11.227
		c-5.457,0-10.665-1.059-15.625-3.179c-4.962-2.12-8.906-4.848-11.836-8.183c-1.038-1.038-1.082-2.143-0.135-3.314l8.996-12.04
		c0.541-0.811,1.149-1.217,1.825-1.217c0.451,0,0.903,0.225,1.354,0.676c1.667,1.758,3.81,3.144,6.425,4.159
		c2.615,1.015,5.434,1.523,8.455,1.523c3.021,0,5.658-0.474,7.914-1.421c2.254-0.947,4.001-2.222,5.241-3.822
		c1.24-1.602,2.141-3.304,2.706-5.106c0.562-1.805,0.845-3.722,0.845-5.75v-6.764c-1.488,2.48-4.228,4.623-8.218,6.426
		s-8.083,2.705-12.277,2.705c-8.297,0-14.689-2.661-19.174-7.981c-4.487-5.32-6.73-12.964-6.73-22.929v-35.714
		c0-1.758,0.834-2.638,2.503-2.638h17.585c1.76,0,2.638,0.88,2.638,2.638v31.182c0,4.103,0.969,7.44,2.909,10.01
		c1.939,2.57,4.802,3.855,8.59,3.855c3.743,0,6.708-1.172,8.894-3.516s3.281-5.209,3.281-8.59v-32.94
		c0-1.758,0.88-2.638,2.638-2.638h17.586C753.519,369.993,754.353,370.873,754.353,372.631z"/>
	<path fill="#008CAD" d="M268.279,404.242h13.862l12.484-21.501h-26.346v-18.04H305.1l4.582-7.891v-11.611
		c0-1.73-0.866-2.596-2.596-2.596h-58.844c-1.73,0-2.595,0.866-2.595,2.596v90.262c0,1.73,0.865,2.596,2.595,2.596h14.264
		l5.772-9.941V404.242z"/>
	<path fill="#008CAD" d="M431.498,342.602h-68.695c-1.731,0-2.596,0.866-2.596,2.596v17.041c0,1.642,0.865,2.462,2.596,2.462h23.031
		v44.188l16.547,29.168h3.489c1.731,0,2.596-0.866,2.596-2.596v-70.76h23.031c1.731,0,2.596-0.82,2.596-2.462v-17.041
		C434.094,343.468,433.229,342.602,431.498,342.602z"/>
	<polygon fill="#FBB835" points="251.28,466.541 283.792,466.541 332.777,381.793 365.289,438.147 397.15,438.147 333.21,325.439 	
		"/>
	<polygon fill="#FBB835" points="296.255,441.94 316.737,431.753 332.885,431.753 332.885,437.605 283.792,466.541 288.235,450.826 
			"/>
	<polygon fill="#FBB835" points="323.348,420.59 332.885,404.739 341.121,420.59 	"/>
	<polygon fill="#FF9C00" points="333.21,325.439 332.885,325.998 332.885,381.98 365.289,438.147 397.15,438.147 	"/>
	<g>
		<g>
			<path fill="#FBB835" d="M579.624,470.054c0-1.25,0.423-2.312,1.265-3.187c0.844-0.874,1.875-1.312,3.093-1.312
				c1.25,0,2.316,0.442,3.199,1.325c0.882,0.882,1.323,1.941,1.323,3.175c0,1.218-0.442,2.25-1.323,3.093
				c-0.883,0.844-1.949,1.265-3.199,1.265c-1.218,0-2.249-0.421-3.093-1.265C580.046,472.304,579.624,471.272,579.624,470.054z"/>
			<path fill="#FBB835" d="M606.197,466.305l3.35,4.757c0.297,0.5,0.203,0.898-0.281,1.195c-2.25,1.438-4.703,2.155-7.357,2.155
				c-2.266,0-4.347-0.554-6.245-1.663c-1.898-1.109-3.394-2.62-4.487-4.534c-1.094-1.914-1.641-4.003-1.641-6.269
				c0-2.265,0.547-4.354,1.641-6.268c1.093-1.914,2.589-3.425,4.487-4.535c1.898-1.109,3.979-1.663,6.245-1.663
				c2.608,0,5.061,0.75,7.357,2.249c0.218,0.172,0.351,0.376,0.398,0.61c0.047,0.234-0.008,0.461-0.164,0.678l-3.35,4.617
				c-0.172,0.25-0.399,0.374-0.68,0.374c-0.172,0-0.352-0.046-0.539-0.14c-0.938-0.609-1.945-0.914-3.023-0.914
				c-1.344,0-2.46,0.473-3.351,1.417c-0.891,0.946-1.336,2.137-1.336,3.574c0,1.438,0.445,2.629,1.336,3.574
				c0.891,0.946,2.008,1.417,3.351,1.417c1.109,0,2.171-0.273,3.187-0.819c0.187-0.094,0.359-0.141,0.515-0.141
				C605.877,465.977,606.072,466.087,606.197,466.305z"/>
			<path fill="#FBB835" d="M611.47,468.215c-1.094-1.914-1.641-4.003-1.641-6.269c0-2.265,0.547-4.354,1.641-6.268
				c1.093-1.914,2.589-3.425,4.487-4.535c1.898-1.109,3.979-1.663,6.245-1.663c2.265,0,4.354,0.554,6.268,1.663
				c1.914,1.11,3.422,2.621,4.523,4.535c1.101,1.914,1.652,4.003,1.652,6.268c0,2.266-0.551,4.355-1.652,6.269
				c-1.101,1.914-2.609,3.425-4.523,4.534c-1.914,1.109-4.003,1.663-6.268,1.663c-2.266,0-4.347-0.554-6.245-1.663
				C614.059,471.64,612.563,470.129,611.47,468.215z M618.851,458.373c-0.891,0.946-1.336,2.137-1.336,3.574
				c0,1.438,0.445,2.629,1.336,3.574c0.891,0.946,2.008,1.417,3.351,1.417c1.342,0,2.471-0.476,3.386-1.43
				c0.913-0.952,1.37-2.14,1.37-3.561c0-1.421-0.457-2.609-1.37-3.561c-0.914-0.952-2.043-1.43-3.386-1.43
				C620.859,456.955,619.742,457.428,618.851,458.373z"/>
			<path fill="#FBB835" d="M638.184,449.949h6.046c0.594,0,0.89,0.305,0.89,0.914v2.015c1.875-2.266,4.195-3.398,6.959-3.398
				c2.906,0,5.195,1.226,6.866,3.679c2.797-2.453,5.757-3.679,8.881-3.679c2.733,0,4.874,0.922,6.421,2.765
				c1.546,1.843,2.319,4.484,2.319,7.92v12.864c0,0.609-0.289,0.914-0.867,0.914h-6.092c-0.609,0-0.913-0.305-0.913-0.914v-11.271
				c0-1.436-0.309-2.597-0.926-3.479c-0.618-0.883-1.558-1.325-2.824-1.325c-1.063,0-2.008,0.43-2.836,1.289
				c-0.828,0.86-1.242,1.82-1.242,2.882v11.904c0,0.609-0.304,0.914-0.913,0.914h-6.093c-0.578,0-0.866-0.305-0.866-0.914v-11.271
				c0-1.436-0.313-2.597-0.938-3.479c-0.625-0.883-1.569-1.325-2.835-1.325c-1.063,0-2.012,0.434-2.847,1.301
				c-0.836,0.866-1.254,1.823-1.254,2.869v11.904c0,0.609-0.296,0.914-0.89,0.914h-6.046c-0.609,0-0.913-0.305-0.913-0.914v-22.166
				C637.27,450.254,637.574,449.949,638.184,449.949z"/>
		</g>
	</g>
</g>
</svg>
