<?xml version="1.0" encoding="UTF-8" standalone="no"?>
<!-- Created with Inkscape (http://www.inkscape.org/) -->

<svg
   version="1.1"
   id="svg2"
   width="454.05334"
   height="154.32001"
   viewBox="0 0 454.05334 154.32001"
   sodipodi:docname="Logo-01.eps"
   xmlns:inkscape="http://www.inkscape.org/namespaces/inkscape"
   xmlns:sodipodi="http://sodipodi.sourceforge.net/DTD/sodipodi-0.dtd"
   xmlns="http://www.w3.org/2000/svg"
   xmlns:svg="http://www.w3.org/2000/svg">
  <defs
     id="defs6" />
  <sodipodi:namedview
     id="namedview4"
     pagecolor="#ffffff"
     bordercolor="#000000"
     borderopacity="0.25"
     inkscape:showpageshadow="2"
     inkscape:pageopacity="0.0"
     inkscape:pagecheckerboard="0"
     inkscape:deskcolor="#d1d1d1" />
  <g
     id="g8"
     inkscape:groupmode="layer"
     inkscape:label="ink_ext_XXXXXX"
     transform="matrix(1.3333333,0,0,-1.3333333,0,154.32)">
    <g
       id="g10"
       transform="scale(0.1)">
      <path
         d="M 0,806.926 V 0.0117188 H 203.777 V 874.398 L 0,1157.41 V 806.926"
         style="fill:#ffffff;fill-opacity:1;fill-rule:nonzero;stroke:none"
         id="path12" />
      <path
         d="M 1173.67,806.926 V 0.0117188 H 969.898 V 874.398 L 1173.67,1157.41 V 806.926"
         style="fill:#ffffff;fill-opacity:1;fill-rule:nonzero;stroke:none"
         id="path14" />
      <path
         d="M 586.84,342.398 317.574,716.352 V 366.703 L 586.84,0.0117188 856.102,374.652 V 721.637 L 586.84,342.398"
         style="fill:#cf0f6f;fill-opacity:1;fill-rule:nonzero;stroke:none"
         id="path16" />
      <path
         d="m 1334.3,290.699 v 502.137 h 33.48 l 217.58,-247.715 217.93,247.715 h 33.47 V 290.699 H 1736.33 L 1736,581.938 1585.36,414.574 1434.73,581.938 V 290.699 H 1334.3"
         style="fill:#ffffff;fill-opacity:1;fill-rule:nonzero;stroke:none"
         id="path18" />
      <path
         d="m 1935.5,290.699 v 501.785 l 368.9,0.352 V 699.098 H 2035.93 V 591.984 h 201.2 V 498.59 h -201.2 V 384.438 h 267.8 V 290.699 H 1935.5"
         style="fill:#ffffff;fill-opacity:1;fill-rule:nonzero;stroke:none"
         id="path20" />
      <path
         d="m 2631.45,384.438 c 44.41,0 80.57,15.07 108.47,45.195 27.88,30.129 41.83,67.512 41.83,112.14 0,44.625 -13.95,82 -41.83,112.129 -27.9,30.129 -64.28,45.196 -109.13,45.196 -44.42,0 -80.57,-15.067 -108.47,-45.196 -27.9,-30.129 -41.83,-67.504 -41.83,-112.129 0,-44.628 13.93,-82.011 41.83,-112.14 27.9,-30.125 64.27,-45.195 109.13,-45.195 z m -179.43,-21.583 c -47.98,48.067 -71.96,107.727 -71.96,178.918 0,71.395 23.98,131.09 71.96,179.071 47.99,47.984 107.67,71.992 179.11,71.992 71.4,0 131.1,-24.008 179.08,-71.992 47.98,-47.981 71.96,-107.676 71.96,-179.071 0,-71.425 -23.98,-131.125 -71.96,-179.101 -47.98,-47.988 -107.68,-71.973 -179.08,-71.973 -71.44,0 -131.12,24.031 -179.11,72.156"
         style="fill:#ffffff;fill-opacity:1;fill-rule:nonzero;stroke:none"
         id="path22" />
      <path
         d="m 2956.84,290.699 v 502.137 h 33.47 L 3304.98,478.16 v 314.676 h 100.43 V 290.699 h -36.83 L 3057.26,602.027 V 290.699 h -100.42"
         style="fill:#ffffff;fill-opacity:1;fill-rule:nonzero;stroke:none"
         id="path24" />
      <path
         d="m 1380.68,153.301 43.51,-112.2424 44.32,112.2424 h 32.69 L 1440.02,0.109375 h -30.64 L 1348,153.301 h 32.68"
         style="fill:#cf0f6f;fill-opacity:1;fill-rule:nonzero;stroke:none"
         id="path26" />
      <path
         d="m 1658.73,112.461 -23.28,-58.2227 h 45.96 z M 1581.32,0.109375 1642.59,153.301 h 30.64 L 1734.41,0.21875 1701.83,0.109375 1692.64,23.6094 H 1623.2 L 1614,0.109375 h -32.68"
         style="fill:#cf0f6f;fill-opacity:1;fill-rule:nonzero;stroke:none"
         id="path28" />
      <path
         d="M 1851,153.301 V 28.7109 h 81.71 V 0.109375 H 1820.37 V 153.301 H 1851"
         style="fill:#cf0f6f;fill-opacity:1;fill-rule:nonzero;stroke:none"
         id="path30" />
      <path
         d="M 2051.63,153.301 V 28.7109 h 81.71 V 0.109375 H 2020.99 V 153.301 h 30.64"
         style="fill:#cf0f6f;fill-opacity:1;fill-rule:nonzero;stroke:none"
         id="path32" />
      <path
         d="M 2220.9,0.109375 V 153.219 l 112.57,0.082 v -28.602 h -81.93 V 92.0313 h 61.39 v -28.5 h -61.39 V 28.7109 h 81.72 V 0.109375 H 2220.9"
         style="fill:#cf0f6f;fill-opacity:1;fill-rule:nonzero;stroke:none"
         id="path34" />
      <path
         d="m 2418.06,153.301 h 35.96 l 35.54,-50.02 36.37,50.02 h 35.12 L 2504.88,76.7109 V 0.109375 h -30.64 V 76.7109 l -56.18,76.5901"
         style="fill:#cf0f6f;fill-opacity:1;fill-rule:nonzero;stroke:none"
         id="path36" />
      <path
         d="M 2873.89,112.461 2843.24,0.109375 H 2812.6 L 2771.66,153.301 h 32.67 l 26.65,-104.1526 27.58,104.1526 h 31.67 l 26.56,-104.1526 26.56,104.1526 h 32.67 L 2935.17,0.109375 h -30.64 L 2873.89,112.461"
         style="fill:#ffffff;fill-opacity:1;fill-rule:nonzero;stroke:none"
         id="path38" />
      <path
         d="M 3061.04,0.109375 V 153.219 l 112.56,0.082 v -28.602 h -81.92 V 92.0313 h 61.38 v -28.5 h -61.38 V 28.7109 h 81.71 V 0.109375 h -112.35"
         style="fill:#ffffff;fill-opacity:1;fill-rule:nonzero;stroke:none"
         id="path40" />
      <path
         d="m 3295.59,24.0117 h 50.04 c 14.37,0.2071 21.72,7.5977 22.06,22.1485 -0.34,9.8281 -7.59,14.9296 -21.75,15.3281 h -50.35 z m 0,67.8281 h 42.9 c 12.31,0.1915 18.65,6.5391 19,19.0902 -0.35,7.492 -6.59,11.441 -18.7,11.84 h -43.2 z m 80.37,-10.9414 c 13.43,-8.9882 20.54,-20.6679 21.35,-35.039 C 3395.95,17 3380.52,1.71875 3351.04,0.0117188 L 3264.85,0.109375 V 153.219 h 81.29 c 25.81,-1.508 39.43,-16.52 40.86,-45.059 -0.47,-13.6092 -4.15,-22.6912 -11.04,-27.2616"
         style="fill:#ffffff;fill-opacity:1;fill-rule:nonzero;stroke:none"
         id="path42" />
    </g>
  </g>
</svg>
