<svg height="383" viewBox="0 0 1716 383" width="1716" xmlns="http://www.w3.org/2000/svg" xmlns:xlink="http://www.w3.org/1999/xlink"><linearGradient id="a"><stop offset=".00001" stop-color="#fbb040"/><stop offset="1" stop-color="#ee2a7b"/></linearGradient><linearGradient id="b" gradientUnits="userSpaceOnUse" x1="64.3228" x2="550.4623" xlink:href="#a" y1="209.7207" y2="209.7207"/><linearGradient id="c" gradientUnits="userSpaceOnUse" x1="64.3228" x2="550.4623" xlink:href="#a" y1="131.5792" y2="131.5792"/><linearGradient id="d" gradientUnits="userSpaceOnUse" x1="64.3228" x2="550.4623" xlink:href="#a" y1="284.687" y2="284.687"/><linearGradient id="e" gradientUnits="userSpaceOnUse" x1="606.7059" x2="1799.0208" xlink:href="#a" y1="271.3428" y2="271.3428"/><linearGradient id="f" gradientUnits="userSpaceOnUse" x1="606.7059" x2="1799.0208" xlink:href="#a" y1="271.3452" y2="271.3452"/><linearGradient id="g" gradientUnits="userSpaceOnUse" x1="606.7059" x2="1799.0208" xlink:href="#a" y1="271.5825" y2="271.5825"/><linearGradient id="h" gradientUnits="userSpaceOnUse" x1="606.7059" x2="1799.0208" xlink:href="#a" y1="270.4144" y2="270.4144"/><linearGradient id="i" gradientUnits="userSpaceOnUse" x1="606.7059" x2="1799.0208" xlink:href="#a" y1="271.3729" y2="271.3729"/><path d="m280.919983 124.969971-4.599976 10.990051-60.340027 144.179993-35.570007-82.590027 29.850037-71.369995h-11.950012l-23.809998 60-26.789978-60h-11.940002l74.72998 168.289978h11.200012l67.869995-158.509949 4.710022-10.990051z" fill="url(#b)"/><path d="m168.22998 219.039978-32.45996 75.429993h-11.210022l-72.329987-169.5h13.129974l65.170044 155.170044 32.059998-73.799988z" fill="url(#b)"/><path d="m492.919983 284.609985-67.450012-159.630005h-10.509949l-54.119995 127.25-.030029.04004c-.409974.869995-5.799988 11.940002-6.619996 13.429992-2.940002 5.339966-6.960022 9.630005-12.049987 12.890015-5.100037 3.259949-10.739991 4.899963-16.950013 4.899963h-73.760009l29.429992-69.46997h46.01001c6.049988 0 11.460022 1.669982 16.23999 5.019958 4.78003 3.340027 8.549988 7.640015 11.330017 12.890015 1.119996 2.109985 2.02002 4.289978 2.690003 6.539978l6.01001-13.599976c-.27002-.400024-.540039-.789978-.820008-1.179993-5.640014-7.880004-13.320007-13.23999-23.030029-16.099975 7.640015-3.340027 13.600037-8.640015 17.910034-15.880005 4.289978-7.25 6.429993-15.070007 6.429993-23.51001 0-7.169983-1.549988-14.040039-4.640015-20.650024-3.119995-6.609986-7.570007-12.01001-13.380005-16.23999-5.799987-4.210022-12.690002-6.330018-20.649963-6.330018h-44.040039l-4.599976 10.980042h45.299988c5.890015 0 11.099976 1.549988 15.640015 4.649963 4.529968 3.100037 8.080017 7.210022 10.630005 12.309998 2.539978 5.100037 3.809997 10.73999 3.809997 16.950012 0 5.720032-1.350036 11.179993-4.049988 16.340027-2.720031 5.179993-6.410034 9.389954-11.100036 12.649963-4.690003 3.26001-10.149964 4.900025-16.359986 4.900025h-47.48999l-37.450012 90.709961h89.950012c8.440003 0 16.119995-1.949951 23.029968-5.839966.610047-.340027 1.200013-.690003 1.78003-1.049988 7.899963-4.900024 13.880005-12.350037 17.47998-20.920044l.090027-.219971 52.630005-126.650024 59.899963 144.830017h12.809998z" fill="url(#b)"/><path d="m158.73999 131.580017c0 8.256653-6.693359 14.950012-14.950012 14.950012s-14.949951-6.693359-14.949951-14.950012 6.693298-14.950012 14.949951-14.950012 14.950012 6.693359 14.950012 14.950012z" fill="url(#c)"/><path d="m499.72998 284.690002c0 8.256653-6.693298 14.950013-14.949951 14.950013-8.256714 0-14.950012-6.69336-14.950012-14.950013 0-8.256652 6.693298-14.950012 14.950012-14.950012 8.256653 0 14.949951 6.69336 14.949951 14.950012z" fill="url(#d)"/><g fill="#262262"><path d="m534.659973 105.619995h4.790039v200.77002h-4.790039z"/><path d="m585.460022 128.849976h16.98999l22.779968 64.950012-2.519958-1.01001 17.619934-45.059998 6.800049 19.890015-25.049988 56.51001zm44.679993 0h14.599975l25.170044 63.559997-2.890014-.5 20.890014-63.059997h15.729981l-35.869995 95.160034z"/><path d="m756.140015 128.349976h60.790039v14.100036h-46.070069v24.419983h41.03003v14.099976h-41.03003v24.920044h47.829956v14.099975h-62.559936v-91.640014z"/><path d="m899.23999 128.349976c9.310059 0 16.680054 1.890014 22.089966 5.660034 5.410034 3.779968 8.119995 9.570007 8.119995 17.369995 0 5.200012-1.219971 9.630005-3.649902 13.279968-2.430054 3.650025-5.77002 6.460022-10.01001 8.430054-4.23999 1.969971-9.210083 3-14.920044 3.079956l-2.140015-7.679993c6.709961.080017 12.690064 1.150025 17.940064 3.210022 5.23999 2.059998 9.439941 4.950012 12.589966 8.690003 3.150024 3.72998 4.71997 8.200012 4.71997 13.399963 0 4.700012-.880004 8.710022-2.640014 12.02002-1.76001 3.320007-4.109986 6.020019-7.049927 8.119995-2.940063 2.100036-6.270019 3.630005-10.01001 4.590027-3.73999.96997-7.530029 1.449951-11.390014 1.449951h-28.700074v-91.629944h25.050049zm2.400025 39.020019c4.359985 0 7.569946-1.279968 9.630005-3.839966 2.059936-2.560058 3.079956-5.600036 3.079956-9.130005 0-4.030029-1.299927-7.030029-3.900025-9-2.599975-1.970031-6.130005-2.960022-10.569946-2.960022h-10.949951v24.919983h12.709961zm.5 39.01001c3.099975 0 5.920044-.460022 8.429931-1.380005 2.52002-.919983 4.53003-2.309998 6.040039-4.150024 1.51001-1.839966 2.27002-4.190003 2.27002-7.049988 0-3.190003-.880005-5.659973-2.640015-7.429993-1.76001-1.76001-3.98999-3.020019-6.670044-3.779968-2.689941-.76001-5.5-1.130005-8.429931-1.130005h-12.209961v24.919983z"/><path d="m988.73999 219.97998v-94.899963h.130005l49.339966 69.859985-6.289917-1.380004 49.089966-68.469971h.25v94.899963h-14.599976v-61.799988l.880005 7.429993-33.100098 46.950012h-.25l-33.72998-46.950012 2.520019-6.799988v61.169983h-14.23999z"/><path d="m1214.160034 219.97998-40.530029-95.409973h-.880005l-40.650024 95.409973h14.46997l25.940064-62.949951 24.910034 62.949951z"/><path d="m1313.089966 147.099976c-3.27002-1.759949-6.76001-3.25-10.449951-4.469971-3.690064-1.220032-7.219971-1.830017-10.570069-1.830017-4.529907 0-8.099975 1.01001-10.699951 3.020019-2.599975 2.01001-3.900024 4.779969-3.900024 8.309998 0 2.520019.900024 4.719971 2.710083 6.609985 1.799926 1.890015 4.130005 3.52002 6.98999 4.910034 2.849976 1.380005 5.869995 2.709961 9.059936 3.959961 2.77002 1.01001 5.5 2.200013 8.180054 3.590027 2.679932 1.380005 5.140015 3.059998 7.359986 5.029968 2.21997 1.970032 3.97998 4.489991 5.290039 7.550049 1.299926 3.059998 1.949951 6.729981 1.949951 11.009949 0 4.869995-1.199951 9.25-3.589966 13.150024-2.390015 3.900025-5.900024 7.049988-10.51001 9.440003-4.619995 2.390015-10.109985 3.589966-16.48999 3.589966-3.859985 0-7.619995-.419983-11.27002-1.259949-3.650024-.840027-7.109985-1.970032-10.380004-3.400024-3.27002-1.429993-6.29004-3.150025-9.060059-5.159974l6.540039-11.330017c2.01001 1.51001 4.319946 2.899964 6.920044 4.149964 2.599976 1.260009 5.26001 2.270019 7.98999 3.020019 2.729981.76001 5.349976 1.130005 7.869995 1.130005 2.52002 0 5.099976-.440002 7.739991-1.320007 2.640014-.880005 4.799926-2.289978 6.47998-4.219971s2.52002-4.530029 2.52002-7.799988c0-2.600036-.75-4.800049-2.27002-6.610046-1.51001-1.799988-3.459961-3.399963-5.849976-4.779968-2.390014-1.380005-5.010009-2.619995-7.869995-3.710022-2.770019-1.089966-5.660034-2.309998-8.680053-3.649964-3.02002-1.340027-5.809937-3-8.369996-4.970031-2.559936-1.969971-4.589965-4.380005-6.099975-7.239991-1.51001-2.850036-2.27002-6.330017-2.27002-10.450012 0-5.029968 1.130005-9.419983 3.400025-13.150024 2.270019-3.729981 5.520019-6.689942 9.75-8.869995 4.23999-2.179993 9.040039-3.349976 14.410034-3.519959 6.459961 0 11.97998.779968 16.549927 2.329956 4.570068 1.550049 8.660034 3.460022 12.270019 5.730042z"/><path d="m1365.329956 128.349976h61.300049v14.100036h-23.660034v77.529968h-14.599976v-77.529968h-23.030029v-14.100036z"/><path d="m1480.619995 128.349976h60.790039v14.100036h-46.070068v24.419983h41.030029v14.099976h-41.030029v24.920044h47.830078v14.099975h-62.560059v-91.640014z"/><path d="m1624.609985 128.349976c5.03003 0 9.630005.670044 13.78003 2.010009 4.150024 1.340027 7.71997 3.25 10.699951 5.730042 2.97998 2.47998 5.26001 5.519958 6.859985 9.119995 1.590088 3.609985 2.390137 7.799988 2.390137 12.589966 0 3.609985-.550049 7.220032-1.640137 10.820007-1.089966 3.609985-2.880005 6.880005-5.349975 9.820007-2.479981 2.940003-5.729981 5.289978-9.75 7.049988-4.03003 1.76001-8.979981 2.640015-14.849976 2.640015h-13.339966v31.839966h-14.72998v-91.629944h25.929931zm1.890015 45.559997c3.189941 0 5.869995-.5 8.060059-1.509949 2.179931-1.010009 3.899902-2.309997 5.159912-3.900024 1.260009-1.590027 2.160034-3.289978 2.710083-5.099976.539917-1.800048.819946-3.5.819946-5.100036 0-1.51001-.25-3.169983-.75-4.969971s-1.369995-3.540039-2.579956-5.220032c-1.220093-1.679992-2.880005-3.039978-4.970093-4.089965-2.099975-1.050049-4.73999-1.570008-7.929931-1.570008h-13.589966v31.469971h13.069946zm15.859985 8.940003 23.410035 37.130004h-17.119996l-23.790039-36.75z"/></g><path d="m632.179993 249.630005c4.350036 0 7.799987.900024 10.330017 2.700012 2.540039 1.799988 3.800049 4.529968 3.800049 8.209961 0 2.400024-.540039 4.450012-1.620118 6.170044-1.079956 1.719971-2.589965 3.049988-4.519897 3.97998-1.940064.940003-4.220093 1.450013-6.859985 1.529969l-.900086-3.289978c3.029968.039978 5.760071.539978 8.179993 1.5 2.420044.960022 4.330078 2.320007 5.75 4.070007 1.420044 1.76001 2.130005 3.830017 2.130005 6.22998 0 2.200013-.409912 4.080018-1.229981 5.660035-.819946 1.579956-1.920044 2.859985-3.290039 3.829956-1.380005.980041-2.929931 1.700012-4.669922 2.160034-1.73999.460022-3.540039.690002-5.420044.690002h-13.179992v-43.429992h11.5zm1.139953 18.75c2.240113 0 3.860108-.640015 4.880005-1.919983 1.02002-1.280029 1.530029-2.820007 1.530029-4.610046 0-2.079956-.650024-3.609986-1.949951-4.609986-1.300049-1-3.080078-1.5-5.360046-1.5h-5.389954v12.640015zm.240113 18.75c1.559936 0 2.96997-.229981 4.21997-.690003 1.26001-.460022 2.26001-1.159973 3-2.099975.739991-.940003 1.109986-2.130005 1.109986-3.559998 0-1.600036-.430054-2.850036-1.290039-3.740051-.859986-.899963-1.969971-1.549988-3.319947-1.949951-1.359985-.400025-2.73999-.600037-4.130005-.600037h-6.110046v12.640015z" fill="url(#e)"/><path d="m800.27002 289.700012c-.680054.479981-1.650025 1.029968-2.910035 1.649964-1.260009.619995-2.73999 1.150024-4.429931 1.590026-1.700074.440003-3.560059.640015-5.600098.599976-3.390015-.039978-6.439941-.639954-9.130005-1.799988-2.699951-1.159973-4.97998-2.75-6.859985-4.76001-1.880005-2.019958-3.319946-4.329956-4.309937-6.949951-1-2.610046-1.5-5.400024-1.5-8.360046 0-3.269959.51001-6.289978 1.53003-9.039978 1.019897-2.76001 2.48999-5.130005 4.399902-7.130005 1.920044-2 4.190063-3.549988 6.830078-4.669983s5.51001-1.679993 8.630005-1.679993c2.679932 0 5.089966.349976 7.25 1.049988 2.159912.700012 3.98999 1.529968 5.51001 2.48999l-2.640015 5.989991c-1.160034-.799988-2.580078-1.570008-4.25-2.309998-1.680054-.73999-3.570068-1.109985-5.690063-1.109985-2 0-3.900025.399963-5.719971 1.200012-1.819946.799988-3.410034 1.940002-4.790039 3.409973-1.380005 1.479981-2.469971 3.200012-3.26001 5.150025-.799927 1.95996-1.199951 4.070007-1.199951 6.349975 0 2.23999.359985 4.340027 1.079956 6.320007.720093 1.979981 1.76001 3.679993 3.109985 5.119996 1.360108 1.440002 2.970093 2.559997 4.820069 3.349975 1.859985.800049 3.959961 1.200012 6.319946 1.200012 2.23999 0 4.200073-.339965 5.900024-1.019958 1.700074-.680054 3.079956-1.460022 4.160035-2.340027z" fill="url(#f)"/><path d="m851 266.700012-.23999 2.099976.900024-1.200012 17.01001-17.969971h8.269897l-17.96997 18.809997 18.810058 24.619996h-8.090088l-15.389892-20.549988-3.350098 3.22998.060059 17.309998h-6.469971v-43.429993h6.469971v17.080017z" fill="url(#e)"/><path d="m926 277.539978c0 1.840027.459961 3.490051 1.380005 4.970032.920044 1.47998 2.140015 2.659973 3.650024 3.529968 1.52002.880005 3.229981 1.320007 5.150025 1.320007 2 0 3.759887-.440002 5.299926-1.320007 1.54004-.880005 2.76001-2.059998 3.650025-3.529968.900024-1.479981 1.349975-3.130005 1.349975-4.970032v-27.909973h6.29004v28.029968c0 3.200012-.739991 5.980042-2.219971 8.360047-1.480103 2.380004-3.480103 4.21997-6.02002 5.539978-2.540039 1.320007-5.320068 1.97998-8.359985 1.97998-3.109985 0-5.920044-.659973-8.420044-1.97998-2.5-1.320008-4.47998-3.159974-5.959961-5.539978-1.47998-2.380005-2.220093-5.160035-2.220093-8.360047v-28.029968h6.410034v27.909973z" fill="url(#g)"/><path d="m1011.119995 249.630005c3.229981 0 6 .539978 8.300049 1.619995 2.299927 1.080017 4.049927 2.640015 5.269897 4.669983 1.220093 2.040039 1.830079 4.48999 1.830079 7.369995 0 1.720032-.26001 3.420044-.78003 5.119995-.520019 1.700012-1.349975 3.220032-2.48999 4.580017-1.140015 1.359986-2.650024 2.460022-4.52002 3.290039-1.880004.839966-4.150024 1.259949-6.829956 1.259949h-6.349975v15.51001h-6.350098v-43.429993h11.920044zm.780029 21.679993c1.599976 0 2.929932-.26001 4.01001-.779969 1.079956-.520019 1.929932-1.190002 2.549927-2.010009.619995-.820008 1.060059-1.690003 1.320068-2.610047.26001-.919983.390015-1.73999.390015-2.459961 0-.799988-.130005-1.650024-.390015-2.549988-.260009-.900024-.690063-1.740051-1.290039-2.520019-.599975-.780029-1.420044-1.419983-2.459961-1.919983-1.040039-.5-2.340088-.75-3.890014-.75h-6.589966v15.570007h6.349975z" fill="url(#e)"/><path d="m1157.930054 293.059998-19.040039-45.289978h-.420044l-19.169922 45.289978h6.349975l12.699952-31.109986 12.280029 31.109986z" fill="url(#h)"/><path d="m727.099976 293.059998-19.049927-45.289978h-.420044l-19.170044 45.289978h6.350098l12.709961-31.109986 12.270019 31.109986z" fill="url(#h)"/><path d="m1431.930054 293.059998-19.040039-45.289978h-.420044l-19.169922 45.289978h6.349975l12.699952-31.109986 12.280029 31.109986z" fill="url(#h)"/><path d="m1200.52002 249.630005h6.349975v37.26001h21.73999v6.169983h-28.089965z" fill="url(#e)"/><path d="m1272.76001 249.630005h6.349975v37.26001h21.739991v6.169983h-28.089966z" fill="url(#e)"/><path d="m1345 249.630005h6.349976v43.429993h-6.349976z" fill="url(#e)"/><path d="m1512.969971 294.549988-33.479981-33.25 1.859986.660034.119995 31.089966h-6.409912v-44.869995h.23999l33.01001 33.23999-1.440064-.359985-.119995-31.450013h6.349976v44.929993h-.130005z" fill="url(#i)"/><path d="m1592.219971 289.700012c-.679932.479981-1.650025 1.029968-2.909912 1.649964-1.26001.619995-2.740113 1.150024-4.430054 1.590026-1.699951.440003-3.560059.640015-5.599976.599976-3.400024-.039978-6.440063-.639954-9.140014-1.799988-2.700074-1.159973-4.979981-2.75-6.859986-4.76001-1.880005-2.019958-3.310058-4.329956-4.310058-6.949951-1-2.610046-1.5-5.400024-1.5-8.360046 0-3.269959.510009-6.289978 1.530029-9.039978 1.02002-2.76001 2.48999-5.130005 4.400024-7.130005 1.919922-2 4.189942-3.549988 6.829956-4.669983 2.640015-1.119995 5.51001-1.679993 8.630005-1.679993 2.670044 0 5.089966.349976 7.25 1.049988 2.160035.700012 3.989991 1.529968 5.51001 2.48999l-2.640015 5.989991c-1.160034-.799988-2.579956-1.570008-4.25-2.309998-1.679931-.73999-3.569946-1.109985-5.689941-1.109985-2 0-3.900024.399963-5.720093 1.200012-1.819946.799988-3.409912 1.940002-4.789917 3.409973-1.380005 1.479981-2.46997 3.200012-3.260009 5.150025-.800049 1.95996-1.200074 4.070007-1.200074 6.349975 0 2.23999.360108 4.340027 1.080078 6.320007.719971 1.979981 1.76001 3.679993 3.109986 5.119996 1.359985 1.440002 2.96997 2.559997 4.819946 3.349975 1.859985.800049 3.960083 1.200012 6.320068 1.200012 2.239991 0 4.199952-.339965 5.900025-1.019958 1.699951-.680054 3.089966-1.460022 4.159912-2.340027z" fill="url(#f)"/><path d="m1636.47998 249.630005h28.449952v6.109985h-22.099976v12.400025h19.710083v6.169983h-19.710083v12.580017h22.940064v6.169983h-29.29004z" fill="url(#e)"/></svg>