<?xml version="1.0" encoding="UTF-8"?>
<!-- Generated by Pixelmator Pro 3.6.18 -->
<svg width="441" height="179" viewBox="0 0 441 179" xmlns="http://www.w3.org/2000/svg">
    <linearGradient id="linearGradient1" x1="12.3228" y1="93.7207" x2="498.4623" y2="93.7207" gradientUnits="userSpaceOnUse">
        <stop offset="1e-05" stop-color="#fbb040" stop-opacity="1"/>
        <stop offset="1" stop-color="#ee2a7b" stop-opacity="1"/>
    </linearGradient>
    <path id="Path" fill="url(#linearGradient1)" stroke="none" d="M 228.919983 8.969971 L 224.320007 19.960022 L 163.97998 164.140015 L 128.409973 81.549988 L 158.26001 10.179993 L 146.309998 10.179993 L 122.5 70.179993 L 95.710022 10.179993 L 83.77002 10.179993 L 158.5 178.469971 L 169.700012 178.469971 L 237.570007 19.960022 L 242.280029 8.969971 Z"/>
    <linearGradient id="linearGradient2" x1="12.3228" y1="93.7207" x2="498.4623" y2="93.7207" gradientUnits="userSpaceOnUse">
        <stop offset="1e-05" stop-color="#fbb040" stop-opacity="1"/>
        <stop offset="1" stop-color="#ee2a7b" stop-opacity="1"/>
    </linearGradient>
    <path id="path1" fill="url(#linearGradient2)" stroke="none" d="M 116.22998 103.039978 L 83.77002 178.469971 L 72.559998 178.469971 L 0.230011 8.969971 L 13.359985 8.969971 L 78.530029 164.140015 L 110.590027 90.340027 Z"/>
    <linearGradient id="linearGradient3" x1="12.3228" y1="93.7207" x2="498.4623" y2="93.7207" gradientUnits="userSpaceOnUse">
        <stop offset="1e-05" stop-color="#fbb040" stop-opacity="1"/>
        <stop offset="1" stop-color="#ee2a7b" stop-opacity="1"/>
    </linearGradient>
    <path id="path2" fill="url(#linearGradient3)" stroke="none" d="M 440.919983 168.609985 L 373.469971 8.97998 L 362.960022 8.97998 L 308.840027 136.22998 L 308.809998 136.27002 C 308.400024 137.140015 303.01001 148.210022 302.190002 149.700012 C 299.25 155.039978 295.22998 159.330017 290.140015 162.590027 C 285.039978 165.849976 279.400024 167.48999 273.190002 167.48999 L 199.429993 167.48999 L 228.859985 98.02002 L 274.869995 98.02002 C 280.919983 98.02002 286.330017 99.690002 291.109985 103.039978 C 295.890015 106.380005 299.659973 110.679993 302.440002 115.929993 C 303.559998 118.039978 304.460022 120.219971 305.130005 122.469971 L 311.140015 108.869995 C 310.869995 108.469971 310.599976 108.080017 310.320007 107.690002 C 304.679993 99.809998 297 94.450012 287.289978 91.590027 C 294.929993 88.25 300.890015 82.950012 305.200012 75.710022 C 309.48999 68.460022 311.630005 60.640015 311.630005 52.200012 C 311.630005 45.030029 310.080017 38.159973 306.98999 31.549988 C 303.869995 24.940002 299.419983 19.539978 293.609985 15.309998 C 287.809998 11.099976 280.919983 8.97998 272.960022 8.97998 L 228.919983 8.97998 L 224.320007 19.960022 L 269.619995 19.960022 C 275.51001 19.960022 280.719971 21.51001 285.26001 24.609985 C 289.789978 27.710022 293.340027 31.820007 295.890015 36.919983 C 298.429993 42.02002 299.700012 47.659973 299.700012 53.869995 C 299.700012 59.590027 298.349976 65.049988 295.650024 70.210022 C 292.929993 75.390015 289.23999 79.599976 284.549988 82.859985 C 279.859985 86.119995 274.400024 87.76001 268.190002 87.76001 L 220.700012 87.76001 L 183.25 178.469971 L 273.200012 178.469971 C 281.640015 178.469971 289.320007 176.52002 296.22998 172.630005 C 296.840027 172.289978 297.429993 171.940002 298.01001 171.580017 C 305.909973 166.679993 311.890015 159.22998 315.48999 150.659973 L 315.580017 150.440002 L 368.210022 23.789978 L 428.109985 168.619995 L 440.919983 168.619995 Z"/>
    <linearGradient id="linearGradient4" x1="12.3228" y1="15.5792" x2="498.4623" y2="15.5792" gradientUnits="userSpaceOnUse">
        <stop offset="1e-05" stop-color="#fbb040" stop-opacity="1"/>
        <stop offset="1" stop-color="#ee2a7b" stop-opacity="1"/>
    </linearGradient>
    <path id="path3" fill="url(#linearGradient4)" stroke="none" d="M 106.73999 15.580017 C 106.73999 23.83667 100.046631 30.530029 91.789978 30.530029 C 83.533325 30.530029 76.840027 23.83667 76.840027 15.580017 C 76.840027 7.323364 83.533325 0.630005 91.789978 0.630005 C 100.046631 0.630005 106.73999 7.323364 106.73999 15.580017 Z"/>
</svg>
