<?xml version="1.0" encoding="utf-8"?>
<!-- Generator: Adobe Illustrator 15.0.2, SVG Export Plug-In . SVG Version: 6.00 Build 0)  -->
<!DOCTYPE svg PUBLIC "-//W3C//DTD SVG 1.1//EN" "http://www.w3.org/Graphics/SVG/1.1/DTD/svg11.dtd">
<svg version="1.1" id="Layer_1" xmlns="http://www.w3.org/2000/svg" xmlns:xlink="http://www.w3.org/1999/xlink" x="0px" y="0px"
	 width="1919px" height="1079px" viewBox="0 0 1919 1079" enable-background="new 0 0 1919 1079" xml:space="preserve">
<g>
	<g>
		<g>
			<g>
				<g>
					<g>
						<g>
							<g>
								<rect x="67.418" y="954.106" width="1787.755" height="4.698"/>
							</g>
						</g>
					</g>
				</g>
			</g>
		</g>
	</g>
</g>
<g id="buildings_x5F_19_1_">
	<path fill="#6A67F2" d="M220.833,605.295c0,0,37.489-109.76,47.669-145.167c13.707-47.665,20.329-171.686,20.329-171.686h-82.75
		C206.082,425.544,220.833,605.295,220.833,605.295z"/>
	<path fill="#6A67F2" d="M377.271,498.939c0,0-85.014,229.085-101.114,298.773c-13.734,59.424-19.813,156.416-19.813,156.416
		h152.337C408.681,720.179,357.903,585.086,377.271,498.939z"/>
	<g id="XMLID_4_">
		<path fill="#BDBFF8" d="M140.454,954.128h119.845c0-267.594,148.382-396.438,148.382-665.686h-119.85
			C288.832,557.69,140.454,686.534,140.454,954.128z"/>
	</g>
	<g id="XMLID_3_">
		<path fill="#FFFFFF" d="M137.542,954.128h5.066c0-267.594,148.381-396.438,148.381-665.686h-5.068
			C285.921,557.69,137.542,686.534,137.542,954.128z"/>
	</g>
	<g id="XMLID_1_">
		<path fill="#FFFFFF" d="M256.344,954.128h5.067c0-267.594,148.381-396.438,148.381-665.686h-5.066
			C404.727,557.69,256.344,686.534,256.344,954.128z"/>
	</g>
	<rect x="353.289" y="322.206" fill="#FFFFFF" width="7.601" height="10.3"/>
	<rect x="372.623" y="337.678" fill="#FFFFFF" width="7.598" height="10.301"/>
	<rect x="266.966" y="327.354" fill="#FFFFFF" width="7.598" height="10.298"/>
	<rect x="321.984" y="872.5" fill="#FFFFFF" width="7.599" height="10.3"/>
	<rect x="247.46" y="327.354" fill="#FFFFFF" width="7.598" height="10.298"/>
	<rect x="291.177" y="474.918" fill="#FFFFFF" width="7.601" height="10.299"/>
	<rect x="285.196" y="506.207" fill="#FFFFFF" width="7.598" height="10.298"/>
	<rect x="214.266" y="296.995" fill="#FFFFFF" width="7.598" height="10.298"/>
	<rect x="251.257" y="384.272" fill="#FFFFFF" width="7.598" height="10.298"/>
	<rect x="353.289" y="740.968" fill="#FFFFFF" width="7.601" height="10.303"/>
	<rect x="318.374" y="505.276" fill="#FFFFFF" width="7.599" height="10.298"/>
	<rect x="370.42" y="694.623" fill="#FFFFFF" width="7.6" height="10.296"/>
	<rect x="351.361" y="644.457" fill="#FFFFFF" width="7.598" height="10.298"/>
	<rect x="357.093" y="445.519" fill="#FFFFFF" width="7.598" height="10.299"/>
	<rect x="314.573" y="735.819" fill="#FFFFFF" width="7.601" height="10.3"/>
	<rect x="353.292" y="769.104" fill="#FFFFFF" width="7.598" height="10.301"/>
	<rect x="228.747" y="443.999" fill="#FFFFFF" width="7.601" height="10.299"/>
	<rect x="231.781" y="845.577" fill="#FFFFFF" width="7.601" height="10.299"/>
	<rect x="281.396" y="632.881" fill="#FFFFFF" width="7.596" height="10.298"/>
	<rect x="281.396" y="657.502" fill="#FFFFFF" width="7.596" height="10.298"/>
	<rect x="349.49" y="604.844" fill="#FFFFFF" width="7.603" height="10.298"/>
	<rect x="187.322" y="814.481" fill="#FFFFFF" width="7.601" height="10.3"/>
	<rect x="229.005" y="756.378" fill="#FFFFFF" width="7.598" height="10.297"/>
	<linearGradient id="SVGID_1_" gradientUnits="userSpaceOnUse" x1="325.9751" y1="410.4414" x2="325.9751" y2="703.3961">
		<stop  offset="0" style="stop-color:#FFCC5E"/>
		<stop  offset="0.2839" style="stop-color:#FFA45D"/>
		<stop  offset="0.5931" style="stop-color:#FF7E5B"/>
		<stop  offset="0.8428" style="stop-color:#FF675A"/>
		<stop  offset="1" style="stop-color:#FF5F5A"/>
	</linearGradient>
	<rect x="322.175" y="398.244" fill="url(#SVGID_1_)" width="7.599" height="10.301"/>
	<rect x="232.548" y="674.688" fill="#FFFFFF" width="7.598" height="10.301"/>
	<rect x="308.874" y="564.287" fill="#FFFFFF" width="7.598" height="10.303"/>
	<linearGradient id="SVGID_2_" gradientUnits="userSpaceOnUse" x1="260.1431" y1="410.4443" x2="260.1431" y2="703.3605">
		<stop  offset="0" style="stop-color:#FFCC5E"/>
		<stop  offset="0.2839" style="stop-color:#FFA45D"/>
		<stop  offset="0.5931" style="stop-color:#FF7E5B"/>
		<stop  offset="0.8428" style="stop-color:#FF675A"/>
		<stop  offset="1" style="stop-color:#FF5F5A"/>
	</linearGradient>
	<rect x="256.344" y="718.368" fill="url(#SVGID_2_)" width="7.598" height="10.298"/>
</g>
<g>
	<path fill="#B8DE57" d="M379.01,851.71c24.326,36.665-21.98-12.45-26.471,25.767c-2.576,21.925,16.7,51.623,43.654,76.321h89.044
		c0.741-5.071,2.205-10.43,4.762-16.025c17.101-37.329-10.44-18.896-7.501-35.699c2.937-16.805-7.542-2.498-17.452-34.594
		c-9.925-32.058,18.539-74.735,8.078-77.032c-10.458-2.291-39.2,17.611-39.2,17.611c18.249-30.657,35.854-80.482,14.658-116.613
		c-21.131-36.124-19.061-70.16-19.061-70.16c-77.914,39.319-64.903,78.399-64.903,78.399s-34.448,13.07-16.837,38.646
		c17.551,25.574,0.601,38.526-5.659,50.241C324.614,821.135,354.626,815.043,379.01,851.71z M407.087,727.091
		c2.768-5.61,24.73-6.823,20.372-15.906c-4.884-10.255,19.095,7.809,10.346,14.564c1.867,2.568,2.804,5.39,2.497,7.984
		c-0.767,7.567-12.53,12.248-25.795,9.729c-8.018-1.529-14.697-5.221-14.103-10.273
		C400.678,730.815,405.832,729.575,407.087,727.091z M417,830.006c3.831,0.255,4.105-6.746,8.283-6.365
		c15.672,1.549,19.121-5.765,20.516-2.757c3.46,7.509-9.93,28.121-27.635,26.433c-10.132-0.965-17.77-6.768-18.438-12.361
		C398.997,828.818,408.275,829.378,417,830.006z"/>
	<g>
		<path fill="#FFFFFF" d="M394.048,699.677c-6.7-38.142,27.781-68.792,28.13-69.095l2.554,1.063
			c-0.344,0.304-34.318,30.528-27.716,68.083c3.277,18.667-4.423,36.687-11.869,54.12c-7.794,18.238-15.15,35.47-8.335,50.883
			c13.212,29.883,79.492,147.882,80.16,149.067l-2.831,0.33c-0.664-1.187-66.974-119.237-80.215-149.186
			c-7.003-15.834,0.44-33.263,8.319-51.708C389.637,735.943,397.277,718.058,394.048,699.677z"/>
	</g>
</g>
<g>
	<path fill="#B8DE57" d="M1048.199,954.998c-22.811-4.652-72.565-18.471-112.755-55.398
		c-44.844-41.206-65.013-76.015-134.499-55.149c-71.85,21.575-87.104-45.396-153.861-15.773
		c-64.427,28.587-88.748,109.166-93.269,126.321H1048.199z"/>
	<g>
		<path fill="#FFFFFF" d="M618.167,955.422c-13.305-19.093-11.261-47.179,5.912-81.22c12.87-25.51,29.874-45.681,30.044-45.881
			l2.034,1.724c-0.671,0.79-66.665,79.565-35.802,123.854L618.167,955.422z"/>
	</g>
	<g>
		<path fill="#FFFFFF" d="M609.228,928.612c-9.095-22.808-36.5-23.638-36.775-23.643l0.052-2.666
			c0.292,0.007,29.441,0.85,39.199,25.322L609.228,928.612z"/>
	</g>
	<g>
		<path fill="#FFFFFF" d="M629.55,870.712c-0.45,0-0.896-0.015-1.343-0.042l0.164-2.661c24.442,1.524,56.489-44.463,56.81-44.928
			l2.194,1.515C686.053,826.51,655.222,870.712,629.55,870.712z"/>
	</g>
	<g>
		<path fill="#FFFFFF" d="M614.12,908.996c-0.673,0-1.341-0.012-2.018-0.036l0.091-2.663c39.11,1.309,76.345-39.534,76.716-39.945
			l1.984,1.78C689.371,869.827,653.744,908.996,614.12,908.996z"/>
	</g>
	<g>
		<path fill="#FFFFFF" d="M658.532,954.24l-2.666-0.028c0.444-42.072,19.545-71.899,35.491-89.513
			c17.266-19.07,34.702-28.347,34.877-28.439l1.24,2.361C726.792,838.98,659.364,875.363,658.532,954.24z"/>
	</g>
	<g>
		<path fill="#FFFFFF" d="M891.059,952.515c-29.906-21.147-24.602-46.181-14.416-70.082c9.765-22.913-13.552-36.59-14.549-37.16
			l1.322-2.315c0.265,0.151,26.379,15.409,15.68,40.52c-9.747,22.874-14.859,46.807,13.502,66.861L891.059,952.515z"/>
	</g>
	<g>
		<path fill="#FFFFFF" d="M904.733,954.709c-19.436-23.926-10.907-39.901,1.206-53.602c11.959-13.526-4.407-30.843-5.11-31.572
			l1.92-1.851c0.19,0.197,18.777,19.818,5.187,35.188c-10.559,11.943-20.225,26.652-1.132,50.154L904.733,954.709z"/>
	</g>
	<g>
		<path fill="#FFFFFF" d="M711.122,956.965l-1.618-2.117c0.271-0.209,27.051-21.115,21.881-52.563
			c-4.828-29.354,26.109-52.245,27.429-53.204l1.569,2.156c-0.311,0.226-30.927,22.893-26.369,50.615
			C739.451,934.904,711.407,956.748,711.122,956.965z"/>
	</g>
	<g>
		<path fill="#FFFFFF" d="M768.384,952.455l-0.345-1.413c-14.294-58.475,27.64-103.404,28.065-103.852l1.932,1.838
			c-0.412,0.433-40.647,43.593-27.756,99.907c7.658-3.104,44.649-20.289,44.917-62.492c0.263-41.314,24.697-46.926,25.738-47.145
			l0.55,2.609c-0.951,0.205-23.372,5.503-23.621,44.554c-0.311,48.765-47.624,65.364-48.102,65.526L768.384,952.455z"/>
	</g>
	<g>
		<path fill="#FFFFFF" d="M814.881,896.272c-19.014-20.109-4.177-52.345-3.536-53.708l2.413,1.135
			c-0.15,0.316-14.697,31.96,3.06,50.742L814.881,896.272z"/>
	</g>
	<g>
		<path fill="#FFFFFF" d="M869.163,918.448c-39.542-25.355-20.627-77.077-20.431-77.598l2.495,0.94
			c-0.188,0.498-18.338,50.229,19.376,74.413L869.163,918.448z"/>
	</g>
	<g>
		<path fill="#FFFFFF" d="M911.086,926.304c-4.723,0-9.952-1.22-15.646-3.663l1.05-2.45c9.994,4.283,18.319,4.571,24.741,0.849
			c10.911-6.325,12.871-22.224,12.889-22.385l2.648,0.307c-0.082,0.707-2.143,17.396-14.2,24.385
			C919.166,925.318,915.33,926.304,911.086,926.304z"/>
	</g>
	<g>
		<path fill="#FFFFFF" d="M726.057,935.238c-32.745-39.256,4.896-94.931,5.279-95.49l2.196,1.512
			c-0.372,0.541-36.872,54.575-5.429,92.271L726.057,935.238z"/>
	</g>
</g>
<g>
	<g opacity="0.5">
		<path fill="#BDBFF8" d="M1731.822,481.903v408.004c0,27.396-22.229,49.626-49.646,49.626H653.753
			c-27.416,0-49.623-22.229-49.623-49.626V481.903c0,27.416,22.207,49.625,49.623,49.625h1028.423
			C1709.594,531.528,1731.822,509.319,1731.822,481.903z"/>
	</g>
	<g opacity="0.55">
		<path fill="#FFFFFF" d="M1682.18,531.538H653.753c-27.409,0-49.633-22.22-49.633-49.632v-58.049
			c0-27.411,22.224-49.631,49.633-49.631H1682.18c27.409,0,49.631,22.22,49.631,49.631v58.049
			C1731.811,509.318,1709.589,531.538,1682.18,531.538z"/>
	</g>
	<g>
		<rect x="668.631" y="497.608" fill="#6A67F2" width="908.227" height="2.216"/>
	</g>
	<g>
		<path fill="#BDBFF8" d="M1682.18,534.861H653.753c-29.201,0-52.956-23.755-52.956-52.956v-58.049
			c0-29.199,23.755-52.956,52.956-52.956H1682.18c29.199,0,52.955,23.757,52.955,52.956v58.049
			C1735.135,511.106,1711.379,534.861,1682.18,534.861z M653.753,377.55c-25.533,0-46.308,20.773-46.308,46.306v58.049
			c0,25.533,20.774,46.308,46.308,46.308H1682.18c25.533,0,46.308-20.775,46.308-46.308v-58.049
			c0-25.533-20.774-46.306-46.308-46.306H653.753z"/>
	</g>
	<g>
		<g>
			<path d="M1642.217,429.114c-11.791,0-21.383,9.593-21.383,21.384c0,11.788,9.592,21.382,21.383,21.382
				s21.383-9.595,21.383-21.382C1663.6,438.707,1654.008,429.114,1642.217,429.114z M1642.217,465.894
				c-8.491,0-15.396-6.906-15.396-15.396c0-8.491,6.904-15.397,15.396-15.397c8.489,0,15.396,6.906,15.396,15.397
				C1657.612,458.987,1650.706,465.894,1642.217,465.894z"/>
		</g>
		<g>
			<path d="M1657.337,461.385c-1.169-1.174-3.064-1.174-4.233,0c-1.167,1.169-1.167,3.063,0,4.229l10.156,10.156
				c0.584,0.584,1.35,0.879,2.115,0.879c0.765,0,1.53-0.295,2.115-0.879c1.167-1.168,1.167-3.063,0-4.232L1657.337,461.385z"/>
		</g>
	</g>
	<path fill="#6A67F2" d="M747.674,619.521l-7.098-7.098c2.334-3.096,3.734-6.928,3.734-11.094c0-10.194-8.293-18.487-18.487-18.487
		c-10.191,0-18.484,8.293-18.484,18.487c0,10.191,8.293,18.484,18.484,18.484c4.167,0,8.003-1.4,11.095-3.733l7.099,7.098
		c0.504,0.506,1.167,0.76,1.83,0.76c0.66,0,1.322-0.254,1.827-0.76C748.685,622.169,748.685,620.53,747.674,619.521z
		 M712.517,601.329c0-7.339,5.968-13.311,13.307-13.311c7.341,0,13.311,5.972,13.311,13.311c0,7.341-5.97,13.312-13.311,13.312
		C718.485,614.641,712.517,608.67,712.517,601.329z"/>
	<g>
		<path fill="#2E2747" d="M685.341,465.181l7.922-0.692c0.375,3.175,1.249,5.779,2.619,7.813c1.371,2.034,3.5,3.68,6.385,4.935
			c2.885,1.255,6.132,1.883,9.74,1.883c3.203,0,6.032-0.476,8.484-1.429c2.453-0.952,4.279-2.257,5.476-3.917
			c1.197-1.66,1.796-3.47,1.796-5.433c0-1.991-0.578-3.729-1.731-5.216c-1.154-1.487-3.059-2.734-5.714-3.745
			c-1.703-0.665-5.469-1.695-11.298-3.095c-5.829-1.4-9.913-2.721-12.25-3.961c-3.03-1.586-5.288-3.556-6.774-5.909
			s-2.229-4.985-2.229-7.9c0-3.203,0.909-6.197,2.727-8.982c1.818-2.785,4.474-4.898,7.965-6.341
			c3.491-1.444,7.374-2.165,11.644-2.165c4.704,0,8.853,0.757,12.445,2.272s6.357,3.745,8.29,6.688
			c1.933,2.944,2.972,6.277,3.117,10l-8.051,0.606c-0.433-4.011-1.898-7.041-4.394-9.09c-2.496-2.049-6.183-3.073-11.06-3.073
			c-5.08,0-8.781,0.931-11.103,2.792c-2.323,1.861-3.485,4.105-3.485,6.731c0,2.279,0.822,4.156,2.468,5.627
			c1.616,1.472,5.837,2.98,12.661,4.524c6.825,1.543,11.508,2.894,14.047,4.047c3.695,1.703,6.422,3.859,8.182,6.471
			c1.76,2.612,2.641,5.621,2.641,9.026c0,3.376-0.967,6.558-2.9,9.545s-4.711,5.31-8.333,6.969
			c-3.621,1.66-7.698,2.489-12.229,2.489c-5.742,0-10.556-0.838-14.437-2.511c-3.881-1.673-6.926-4.192-9.134-7.554
			C686.619,473.226,685.457,469.423,685.341,465.181z"/>
		<path fill="#2E2747" d="M747.503,485.569v-63.46h45.885v7.489H755.9v19.437h35.106v7.445H755.9v21.601h38.959v7.489H747.503z"/>
		<path fill="#2E2747" d="M803.907,454.662c0-10.534,2.829-18.78,8.484-24.739c5.656-5.958,12.958-8.939,21.904-8.939
			c5.859,0,11.14,1.4,15.843,4.199c4.703,2.798,8.29,6.703,10.757,11.709s3.701,10.686,3.701,17.034
			c0,6.435-1.298,12.192-3.896,17.272c-2.597,5.08-6.276,8.924-11.038,11.536s-9.898,3.918-15.411,3.918
			c-5.974,0-11.313-1.444-16.017-4.329c-4.703-2.885-8.268-6.824-10.692-11.817C805.119,465.512,803.907,460.231,803.907,454.662z
			 M812.564,454.792c0,7.646,2.056,13.672,6.168,18.072s9.27,6.602,15.475,6.602c6.32,0,11.521-2.223,15.605-6.666
			c4.084-4.444,6.125-10.75,6.125-18.917c0-5.167-0.873-9.675-2.619-13.527s-4.3-6.839-7.662-8.961
			c-3.361-2.121-7.136-3.182-11.32-3.182c-5.945,0-11.06,2.042-15.345,6.125C814.707,438.422,812.564,445.24,812.564,454.792z"/>
	</g>
	<g>
		<path fill="#2E2747" d="M803.496,621.736V588.42h4.412v33.316H803.496z"/>
		<path fill="#2E2747" d="M815.158,621.736v-24.135h3.68v3.43c1.774-2.648,4.332-3.976,7.684-3.976c1.453,0,2.789,0.261,4.011,0.784
			c1.217,0.522,2.131,1.208,2.737,2.058c0.605,0.848,1.03,1.854,1.271,3.021c0.152,0.758,0.229,2.081,0.229,3.978v14.84h-4.091
			v-14.682c0-1.666-0.158-2.912-0.478-3.737c-0.316-0.827-0.88-1.485-1.693-1.979c-0.81-0.491-1.762-0.739-2.852-0.739
			c-1.744,0-3.245,0.553-4.512,1.66c-1.264,1.104-1.895,3.203-1.895,6.295v13.182H815.158z"/>
		<path fill="#2E2747" d="M849.972,618.078l0.591,3.613c-1.152,0.241-2.181,0.363-3.09,0.363c-1.485,0-2.637-0.237-3.455-0.705
			c-0.819-0.471-1.394-1.085-1.728-1.852c-0.333-0.768-0.5-2.377-0.5-4.831v-13.884h-3v-3.182h3v-5.978l4.067-2.453v8.431h4.114
			v3.182h-4.114v14.113c0,1.164,0.073,1.915,0.217,2.25c0.145,0.332,0.378,0.599,0.706,0.794c0.324,0.198,0.789,0.296,1.396,0.296
			C848.631,618.236,849.229,618.182,849.972,618.078z"/>
		<path fill="#2E2747" d="M870.495,613.964l4.227,0.521c-0.667,2.471-1.903,4.387-3.706,5.751c-1.803,1.363-4.105,2.044-6.909,2.044
			c-3.53,0-6.329-1.085-8.395-3.261c-2.069-2.173-3.102-5.224-3.102-9.146c0-4.062,1.042-7.213,3.134-9.456
			c2.091-2.242,4.803-3.362,8.138-3.362c3.225,0,5.862,1.097,7.909,3.296c2.044,2.195,3.068,5.285,3.068,9.272
			c0,0.243-0.01,0.605-0.025,1.091h-18c0.151,2.648,0.904,4.68,2.251,6.09c1.349,1.407,3.03,2.112,5.046,2.112
			c1.5,0,2.779-0.393,3.841-1.182C869.031,616.947,869.874,615.69,870.495,613.964z M857.064,607.352h13.476
			c-0.182-2.03-0.698-3.555-1.545-4.568c-1.304-1.577-2.994-2.365-5.07-2.365c-1.878,0-3.456,0.63-4.737,1.886
			C857.908,603.563,857.199,605.243,857.064,607.352z"/>
		<path fill="#2E2747" d="M879.812,621.736v-24.135h3.679v3.659c0.939-1.715,1.808-2.842,2.604-3.388
			c0.794-0.545,1.668-0.817,2.625-0.817c1.377,0,2.779,0.439,4.204,1.318l-1.41,3.796c-0.999-0.593-2-0.887-2.999-0.887
			c-0.894,0-1.698,0.268-2.409,0.807c-0.712,0.538-1.222,1.284-1.525,2.238c-0.455,1.455-0.68,3.045-0.68,4.771v12.637H879.812z"/>
		<path fill="#2E2747" d="M895.357,621.736v-24.135h3.679v3.43c1.775-2.648,4.333-3.976,7.684-3.976
			c1.454,0,2.791,0.261,4.011,0.784c1.219,0.522,2.131,1.208,2.737,2.058c0.606,0.848,1.031,1.854,1.273,3.021
			c0.151,0.758,0.227,2.081,0.227,3.978v14.84h-4.091v-14.682c0-1.666-0.158-2.912-0.478-3.737
			c-0.317-0.827-0.881-1.485-1.693-1.979c-0.809-0.491-1.761-0.739-2.852-0.739c-1.743,0-3.245,0.553-4.51,1.66
			c-1.265,1.104-1.896,3.203-1.896,6.295v13.182H895.357z"/>
		<path fill="#2E2747" d="M936.992,618.758c-1.515,1.29-2.975,2.199-4.375,2.727c-1.401,0.533-2.907,0.796-4.512,0.796
			c-2.652,0-4.688-0.646-6.112-1.942c-1.425-1.294-2.136-2.95-2.136-4.965c0-1.183,0.268-2.263,0.806-3.238
			c0.538-0.979,1.244-1.762,2.113-2.353c0.873-0.592,1.853-1.037,2.944-1.341c0.804-0.211,2.016-0.417,3.636-0.614
			c3.303-0.395,5.734-0.864,7.294-1.408c0.015-0.562,0.025-0.916,0.025-1.067c0-1.666-0.388-2.842-1.159-3.524
			c-1.047-0.924-2.599-1.386-4.66-1.386c-1.925,0-3.343,0.338-4.262,1.013c-0.914,0.673-1.595,1.866-2.035,3.576l-3.999-0.544
			c0.363-1.71,0.964-3.094,1.796-4.147c0.834-1.053,2.036-1.863,3.614-2.431c1.574-0.569,3.4-0.853,5.476-0.853
			c2.061,0,3.734,0.243,5.021,0.728c1.289,0.484,2.236,1.096,2.842,1.828c0.606,0.735,1.031,1.663,1.272,2.783
			c0.137,0.698,0.207,1.957,0.207,3.774v5.454c0,3.802,0.087,6.209,0.26,7.215c0.175,1.009,0.52,1.975,1.034,2.898h-4.272
			C937.385,620.887,937.112,619.896,936.992,618.758z M936.649,609.624c-1.485,0.605-3.711,1.12-6.68,1.545
			c-1.683,0.243-2.872,0.517-3.568,0.819c-0.698,0.303-1.237,0.744-1.613,1.328c-0.381,0.585-0.569,1.229-0.569,1.943
			c0,1.091,0.414,2,1.238,2.727c0.828,0.729,2.035,1.091,3.625,1.091c1.576,0,2.979-0.347,4.204-1.034
			c1.229-0.688,2.129-1.631,2.706-2.83c0.439-0.922,0.658-2.286,0.658-4.091V609.624z"/>
		<path fill="#2E2747" d="M947.035,621.736V588.42h4.091v33.316H947.035z"/>
		<path fill="#2E2747" d="M968.875,609.667c0-4.467,1.242-7.778,3.728-9.93c2.074-1.788,4.605-2.682,7.591-2.682
			c3.317,0,6.028,1.089,8.135,3.262c2.105,2.173,3.158,5.178,3.158,9.01c0,3.105-0.465,5.55-1.396,7.329
			c-0.934,1.782-2.289,3.162-4.069,4.149c-1.779,0.982-3.723,1.475-5.828,1.475c-3.38,0-6.11-1.082-8.193-3.25
			C969.915,616.866,968.875,613.744,968.875,609.667z M973.08,609.667c0,3.09,0.673,5.406,2.021,6.942
			c1.349,1.541,3.045,2.308,5.092,2.308c2.029,0,3.718-0.772,5.067-2.317c1.347-1.545,2.021-3.902,2.021-7.067
			c0-2.986-0.676-5.246-2.034-6.784c-1.354-1.537-3.041-2.307-5.055-2.307c-2.047,0-3.743,0.765-5.092,2.295
			C973.753,604.268,973.08,606.577,973.08,609.667z"/>
		<path fill="#2E2747" d="M996.283,630.986v-33.385h3.726v3.135c0.877-1.227,1.871-2.146,2.977-2.762
			c1.105-0.611,2.446-0.919,4.024-0.919c2.058,0,3.876,0.529,5.454,1.59c1.573,1.061,2.764,2.558,3.566,4.49
			c0.803,1.93,1.204,4.048,1.204,6.35c0,2.471-0.441,4.695-1.329,6.67c-0.886,1.979-2.174,3.495-3.864,4.545
			c-1.688,1.053-3.465,1.58-5.327,1.58c-1.364,0-2.588-0.286-3.672-0.862c-1.082-0.576-1.975-1.304-2.669-2.183v11.751H996.283z
			 M999.985,609.806c0,3.104,0.628,5.4,1.885,6.886c1.259,1.483,2.782,2.226,4.57,2.226c1.818,0,3.373-0.767,4.67-2.308
			c1.295-1.536,1.941-3.919,1.941-7.146c0-3.075-0.631-5.379-1.896-6.909s-2.775-2.294-4.533-2.294
			c-1.743,0-3.283,0.813-4.626,2.442C1000.656,604.333,999.985,606.697,999.985,609.806z"/>
		<path fill="#2E2747" d="M1031.1,618.078l0.591,3.613c-1.152,0.241-2.183,0.363-3.092,0.363c-1.485,0-2.636-0.237-3.454-0.705
			c-0.818-0.471-1.395-1.085-1.727-1.852c-0.334-0.768-0.5-2.377-0.5-4.831v-13.884h-3v-3.182h3v-5.978l4.069-2.453v8.431h4.112
			v3.182h-4.112v14.113c0,1.164,0.071,1.915,0.213,2.25c0.145,0.332,0.38,0.599,0.706,0.794c0.324,0.198,0.791,0.296,1.396,0.296
			C1029.758,618.236,1030.357,618.182,1031.1,618.078z"/>
		<path fill="#2E2747" d="M1035.12,593.123v-4.703h4.091v4.703H1035.12z M1035.12,621.736v-24.135h4.091v24.135H1035.12z"/>
		<path fill="#2E2747" d="M1045.439,621.736v-24.135h3.658v3.387c0.757-1.183,1.765-2.135,3.021-2.853
			c1.259-0.719,2.69-1.08,4.297-1.08c1.788,0,3.254,0.369,4.397,1.113c1.144,0.741,1.951,1.78,2.421,3.114
			c1.907-2.819,4.394-4.228,7.453-4.228c2.395,0,4.234,0.664,5.521,1.989c1.288,1.323,1.933,3.366,1.933,6.125v16.566h-4.067
			v-15.203c0-1.636-0.133-2.813-0.398-3.534c-0.266-0.721-0.745-1.302-1.443-1.738c-0.695-0.441-1.515-0.661-2.453-0.661
			c-1.697,0-3.107,0.566-4.228,1.693c-1.121,1.131-1.682,2.938-1.682,5.421v14.022h-4.091v-15.682c0-1.818-0.333-3.182-1.001-4.091
			c-0.666-0.909-1.756-1.364-3.271-1.364c-1.151,0-2.216,0.304-3.193,0.909c-0.978,0.606-1.685,1.492-2.124,2.661
			c-0.439,1.163-0.659,2.849-0.659,5.043v12.523H1045.439z"/>
		<path fill="#2E2747" d="M1084.231,593.123v-4.703h4.091v4.703H1084.231z M1084.231,621.736v-24.135h4.091v24.135H1084.231z"/>
		<path fill="#2E2747" d="M1092.39,621.736v-3.318l15.362-17.635c-1.741,0.09-3.279,0.135-4.613,0.135h-9.84v-3.316h19.727v2.702
			l-13.068,15.32l-2.522,2.794c1.833-0.137,3.553-0.206,5.158-0.206h11.159v3.524H1092.39z"/>
		<path fill="#2E2747" d="M1133.57,618.758c-1.516,1.29-2.974,2.199-4.374,2.727c-1.403,0.533-2.907,0.796-4.514,0.796
			c-2.65,0-4.688-0.646-6.112-1.942c-1.425-1.294-2.136-2.95-2.136-4.965c0-1.183,0.269-2.263,0.808-3.238
			c0.536-0.979,1.242-1.762,2.111-2.353c0.872-0.592,1.853-1.037,2.943-1.341c0.804-0.211,2.017-0.417,3.637-0.614
			c3.303-0.395,5.733-0.864,7.293-1.408c0.017-0.562,0.025-0.916,0.025-1.067c0-1.666-0.388-2.842-1.159-3.524
			c-1.047-0.924-2.599-1.386-4.659-1.386c-1.924,0-3.344,0.338-4.261,1.013c-0.916,0.673-1.596,1.866-2.035,3.576l-4-0.544
			c0.364-1.71,0.964-3.094,1.796-4.147c0.834-1.053,2.038-1.863,3.614-2.431c1.573-0.569,3.401-0.853,5.477-0.853
			c2.061,0,3.734,0.243,5.021,0.728c1.289,0.484,2.236,1.096,2.843,1.828c0.605,0.735,1.03,1.663,1.273,2.783
			c0.135,0.698,0.205,1.957,0.205,3.774v5.454c0,3.802,0.086,6.209,0.26,7.215c0.175,1.009,0.519,1.975,1.033,2.898h-4.271
			C1133.963,620.887,1133.691,619.896,1133.57,618.758z M1133.227,609.624c-1.483,0.605-3.711,1.12-6.678,1.545
			c-1.685,0.243-2.872,0.517-3.569,0.819s-1.235,0.744-1.613,1.328c-0.38,0.585-0.568,1.229-0.568,1.943
			c0,1.091,0.413,2,1.237,2.727c0.828,0.729,2.035,1.091,3.627,1.091c1.574,0,2.977-0.347,4.201-1.034
			c1.23-0.688,2.13-1.631,2.706-2.83c0.439-0.922,0.657-2.286,0.657-4.091V609.624z"/>
		<path fill="#2E2747" d="M1152.639,618.078l0.591,3.613c-1.152,0.241-2.183,0.363-3.092,0.363c-1.483,0-2.636-0.237-3.453-0.705
			c-0.819-0.471-1.396-1.085-1.729-1.852c-0.333-0.768-0.499-2.377-0.499-4.831v-13.884h-3v-3.182h3v-5.978l4.068-2.453v8.431h4.113
			v3.182h-4.113v14.113c0,1.164,0.072,1.915,0.215,2.25c0.146,0.332,0.378,0.599,0.705,0.794c0.324,0.198,0.79,0.296,1.396,0.296
			C1151.296,618.236,1151.896,618.182,1152.639,618.078z"/>
		<path fill="#2E2747" d="M1156.659,593.123v-4.703h4.091v4.703H1156.659z M1156.659,621.736v-24.135h4.091v24.135H1156.659z"/>
		<path fill="#2E2747" d="M1165.455,609.667c0-4.467,1.243-7.778,3.728-9.93c2.076-1.788,4.604-2.682,7.59-2.682
			c3.318,0,6.03,1.089,8.137,3.262s3.16,5.178,3.16,9.01c0,3.105-0.468,5.55-1.398,7.329c-0.933,1.782-2.288,3.162-4.069,4.149
			c-1.779,0.982-3.723,1.475-5.829,1.475c-3.378,0-6.11-1.082-8.191-3.25C1166.497,616.866,1165.455,613.744,1165.455,609.667z
			 M1169.658,609.667c0,3.09,0.677,5.406,2.025,6.942c1.347,1.541,3.045,2.308,5.089,2.308c2.031,0,3.72-0.772,5.066-2.317
			c1.349-1.545,2.024-3.902,2.024-7.067c0-2.986-0.678-5.246-2.034-6.784c-1.355-1.537-3.042-2.307-5.057-2.307
			c-2.044,0-3.742,0.765-5.089,2.295C1170.335,604.268,1169.658,606.577,1169.658,609.667z"/>
		<path fill="#2E2747" d="M1192.866,621.736v-24.135h3.679v3.43c1.775-2.648,4.332-3.976,7.684-3.976
			c1.454,0,2.789,0.261,4.011,0.784c1.218,0.522,2.132,1.208,2.737,2.058c0.606,0.848,1.031,1.854,1.272,3.021
			c0.151,0.758,0.228,2.081,0.228,3.978v14.84h-4.091v-14.682c0-1.666-0.157-2.912-0.478-3.737
			c-0.316-0.827-0.881-1.485-1.693-1.979c-0.809-0.491-1.762-0.739-2.852-0.739c-1.743,0-3.245,0.553-4.512,1.66
			c-1.264,1.104-1.896,3.203-1.896,6.295v13.182H1192.866z"/>
	</g>
	<path fill="#6A67F2" d="M747.674,703.269l-7.098-7.098c2.334-3.095,3.734-6.928,3.734-11.092c0-10.194-8.293-18.487-18.487-18.487
		c-10.191,0-18.484,8.293-18.484,18.487c0,10.189,8.293,18.484,18.484,18.484c4.167,0,8.003-1.4,11.095-3.734l7.099,7.098
		c0.504,0.506,1.167,0.759,1.83,0.759c0.66,0,1.322-0.253,1.827-0.759C748.685,705.918,748.685,704.279,747.674,703.269z
		 M712.517,685.079c0-7.34,5.968-13.311,13.307-13.311c7.341,0,13.311,5.971,13.311,13.311c0,7.339-5.97,13.312-13.311,13.312
		C718.485,698.391,712.517,692.418,712.517,685.079z"/>
	<g>
		<path fill="#2E2747" d="M802.838,705.484V672.17h24.09v3.931h-19.681v10.202h18.431v3.91h-18.431v11.341H827.7v3.931H802.838z"/>
		<path fill="#2E2747" d="M830.542,705.484l8.817-12.545l-8.16-11.588h5.113l3.705,5.657c0.698,1.076,1.259,1.979,1.683,2.706
			c0.666-0.999,1.279-1.887,1.842-2.659l4.067-5.704h4.885l-8.34,11.363l8.976,12.77h-5.021l-4.955-7.497l-1.319-2.024l-6.341,9.521
			H830.542z"/>
		<path fill="#2E2747" d="M865.47,701.827l0.591,3.614c-1.15,0.243-2.181,0.363-3.09,0.363c-1.485,0-2.635-0.235-3.455-0.705
			c-0.817-0.469-1.394-1.087-1.727-1.853c-0.333-0.765-0.501-2.374-0.501-4.828v-13.886h-2.999v-3.182h2.999v-5.979l4.069-2.454
			v8.433h4.112v3.182h-4.112v14.112c0,1.167,0.072,1.918,0.215,2.251c0.145,0.333,0.379,0.598,0.706,0.794
			c0.325,0.196,0.789,0.296,1.395,0.296C864.128,701.986,864.729,701.934,865.47,701.827z"/>
		<path fill="#2E2747" d="M885.992,697.715l4.227,0.521c-0.667,2.471-1.903,4.388-3.706,5.751s-4.106,2.045-6.91,2.045
			c-3.529,0-6.328-1.088-8.394-3.261c-2.07-2.172-3.102-5.225-3.102-9.146c0-4.061,1.042-7.213,3.133-9.454
			c2.091-2.242,4.803-3.364,8.138-3.364c3.225,0,5.862,1.099,7.908,3.295c2.045,2.197,3.069,5.288,3.069,9.271
			c0,0.243-0.01,0.606-0.025,1.091h-18c0.151,2.652,0.904,4.682,2.251,6.092c1.349,1.409,3.03,2.111,5.046,2.111
			c1.5,0,2.778-0.393,3.841-1.181C884.529,700.696,885.371,699.441,885.992,697.715z M872.562,691.1h13.476
			c-0.182-2.029-0.698-3.553-1.545-4.566c-1.304-1.575-2.994-2.363-5.07-2.363c-1.878,0-3.457,0.628-4.737,1.885
			C873.405,687.313,872.696,688.994,872.562,691.1z"/>
		<path fill="#2E2747" d="M895.309,705.484v-24.133h3.685v3.658c0.937-1.712,1.805-2.841,2.6-3.385
			c0.796-0.546,1.672-0.819,2.624-0.819c1.379,0,2.782,0.438,4.206,1.317l-1.409,3.796c-1-0.592-2.001-0.888-3-0.888
			c-0.894,0-1.696,0.271-2.409,0.809c-0.712,0.538-1.22,1.282-1.521,2.238c-0.455,1.455-0.685,3.043-0.685,4.771v12.635H895.309z"/>
		<path fill="#2E2747" d="M910.854,705.484v-24.133h3.683v3.432c1.771-2.652,4.332-3.978,7.68-3.978c1.454,0,2.792,0.26,4.012,0.784
			c1.219,0.524,2.133,1.207,2.739,2.057c0.606,0.849,1.029,1.855,1.272,3.021c0.151,0.758,0.226,2.084,0.226,3.978v14.839h-4.09
			v-14.68c0-1.666-0.16-2.911-0.477-3.739c-0.319-0.823-0.882-1.484-1.693-1.978c-0.811-0.489-1.76-0.736-2.852-0.736
			c-1.743,0-3.247,0.552-4.512,1.658c-1.264,1.105-1.897,3.203-1.897,6.294v13.181H910.854z"/>
		<path fill="#2E2747" d="M952.489,702.51c-1.515,1.287-2.975,2.195-4.375,2.727c-1.402,0.529-2.907,0.795-4.512,0.795
			c-2.652,0-4.688-0.646-6.112-1.945c-1.425-1.293-2.136-2.946-2.136-4.965c0-1.182,0.268-2.259,0.806-3.238
			c0.538-0.977,1.244-1.762,2.113-2.351c0.873-0.593,1.853-1.039,2.944-1.342c0.804-0.212,2.016-0.415,3.636-0.614
			c3.304-0.393,5.734-0.861,7.294-1.407c0.015-0.563,0.025-0.917,0.025-1.068c0-1.667-0.388-2.841-1.159-3.523
			c-1.047-0.922-2.599-1.385-4.66-1.385c-1.925,0-3.343,0.336-4.262,1.012c-0.914,0.673-1.595,1.866-2.035,3.578l-3.999-0.546
			c0.363-1.712,0.964-3.092,1.796-4.149c0.834-1.052,2.036-1.861,3.614-2.427c1.574-0.573,3.4-0.854,5.476-0.854
			c2.061,0,3.734,0.243,5.021,0.728c1.289,0.484,2.236,1.096,2.842,1.826c0.605,0.736,1.03,1.665,1.271,2.787
			c0.137,0.696,0.207,1.953,0.207,3.771v5.454c0,3.805,0.086,6.208,0.26,7.217c0.175,1.008,0.52,1.974,1.034,2.896h-4.272
			C952.882,704.636,952.609,703.645,952.489,702.51z M952.146,693.372c-1.485,0.606-3.711,1.122-6.68,1.545
			c-1.683,0.243-2.872,0.517-3.567,0.819c-0.698,0.304-1.237,0.746-1.613,1.329c-0.381,0.584-0.569,1.231-0.569,1.942
			c0,1.093,0.415,2.002,1.238,2.728c0.828,0.728,2.035,1.092,3.625,1.092c1.577,0,2.979-0.345,4.204-1.035
			c1.229-0.688,2.129-1.632,2.706-2.829c0.439-0.924,0.657-2.287,0.657-4.09V693.372z"/>
		<path fill="#2E2747" d="M962.535,705.484V672.17h4.091v33.314H962.535z"/>
		<path fill="#2E2747" d="M984.373,693.419c0-4.47,1.242-7.781,3.729-9.933c2.076-1.788,4.604-2.681,7.59-2.681
			c3.318,0,6.03,1.087,8.137,3.26c2.106,2.177,3.16,5.178,3.16,9.013c0,3.104-0.468,5.551-1.398,7.329
			c-0.933,1.779-2.288,3.163-4.069,4.146c-1.78,0.986-3.723,1.478-5.829,1.478c-3.378,0-6.11-1.083-8.192-3.25
			C985.416,700.615,984.373,697.493,984.373,693.419z M988.577,693.419c0,3.09,0.675,5.404,2.023,6.941
			c1.349,1.54,3.045,2.306,5.091,2.306c2.029,0,3.718-0.77,5.066-2.315s2.024-3.901,2.024-7.068c0-2.985-0.678-5.247-2.034-6.784
			c-1.355-1.537-3.042-2.306-5.057-2.306c-2.046,0-3.742,0.766-5.091,2.294C989.252,688.018,988.577,690.327,988.577,693.419z"/>
		<path fill="#2E2747" d="M1011.783,714.735v-33.384h3.728v3.134c0.878-1.224,1.87-2.146,2.977-2.761
			c1.105-0.611,2.446-0.919,4.022-0.919c2.06,0,3.878,0.529,5.455,1.59c1.573,1.061,2.764,2.558,3.567,4.488
			c0.803,1.931,1.202,4.05,1.202,6.353c0,2.471-0.441,4.694-1.329,6.669c-0.884,1.979-2.172,3.493-3.862,4.546
			c-1.688,1.054-3.466,1.58-5.329,1.58c-1.364,0-2.586-0.287-3.671-0.863c-1.082-0.576-1.974-1.302-2.669-2.181v11.748H1011.783z
			 M1015.487,693.554c0,3.106,0.628,5.403,1.885,6.888c1.257,1.485,2.782,2.225,4.568,2.225c1.818,0,3.375-0.766,4.672-2.306
			c1.294-1.537,1.941-3.918,1.941-7.147c0-3.074-0.633-5.376-1.896-6.91c-1.265-1.526-2.776-2.294-4.533-2.294
			c-1.743,0-3.285,0.814-4.627,2.442C1016.158,688.083,1015.487,690.449,1015.487,693.554z"/>
		<path fill="#2E2747" d="M1046.598,701.827l0.592,3.614c-1.152,0.243-2.183,0.363-3.092,0.363c-1.483,0-2.636-0.235-3.453-0.705
			c-0.819-0.469-1.396-1.087-1.729-1.853c-0.333-0.765-0.499-2.374-0.499-4.828v-13.886h-3v-3.182h3v-5.979l4.067-2.454v8.433h4.113
			v3.182h-4.113v14.112c0,1.167,0.073,1.918,0.216,2.251c0.146,0.333,0.378,0.598,0.704,0.794c0.325,0.196,0.791,0.296,1.398,0.296
			C1045.258,701.986,1045.855,701.934,1046.598,701.827z"/>
		<path fill="#2E2747" d="M1050.622,676.873v-4.703h4.091v4.703H1050.622z M1050.622,705.484v-24.133h4.091v24.133H1050.622z"/>
		<path fill="#2E2747" d="M1060.937,705.484v-24.133h3.661v3.385c0.758-1.182,1.763-2.131,3.023-2.852
			c1.255-0.72,2.688-1.079,4.294-1.079c1.788,0,3.253,0.371,4.398,1.114c1.143,0.742,1.949,1.777,2.419,3.111
			c1.91-2.818,4.394-4.226,7.454-4.226c2.395,0,4.233,0.663,5.524,1.988c1.285,1.326,1.93,3.368,1.93,6.125v16.565h-4.069v-15.202
			c0-1.637-0.132-2.813-0.395-3.533c-0.267-0.721-0.748-1.3-1.445-1.739c-0.696-0.439-1.515-0.658-2.454-0.658
			c-1.696,0-3.105,0.563-4.228,1.692c-1.12,1.13-1.681,2.935-1.681,5.421v14.02h-4.092v-15.678c0-1.818-0.332-3.182-0.998-4.091
			c-0.668-0.909-1.759-1.364-3.273-1.364c-1.152,0-2.216,0.304-3.191,0.909c-0.979,0.606-1.687,1.492-2.126,2.657
			c-0.44,1.167-0.661,2.849-0.661,5.047v12.52H1060.937z"/>
		<path fill="#2E2747" d="M1099.732,676.873v-4.703h4.091v4.703H1099.732z M1099.732,705.484v-24.133h4.091v24.133H1099.732z"/>
		<path fill="#2E2747" d="M1107.892,705.484v-3.316l15.362-17.635c-1.741,0.092-3.281,0.135-4.615,0.135h-9.838v-3.316h19.727v2.704
			l-13.07,15.317l-2.521,2.795c1.833-0.138,3.552-0.204,5.158-0.204h11.16v3.521H1107.892z"/>
		<path fill="#2E2747" d="M1149.07,702.51c-1.515,1.287-2.974,2.195-4.374,2.727c-1.401,0.529-2.907,0.795-4.512,0.795
			c-2.652,0-4.688-0.646-6.113-1.945c-1.424-1.293-2.136-2.946-2.136-4.965c0-1.182,0.27-2.259,0.807-3.238
			c0.538-0.977,1.242-1.762,2.113-2.351c0.872-0.593,1.853-1.039,2.943-1.342c0.803-0.212,2.015-0.415,3.637-0.614
			c3.303-0.393,5.733-0.861,7.294-1.407c0.015-0.563,0.022-0.917,0.022-1.068c0-1.667-0.386-2.841-1.156-3.523
			c-1.048-0.922-2.6-1.385-4.66-1.385c-1.925,0-3.346,0.336-4.263,1.012c-0.916,0.673-1.595,1.866-2.034,3.578l-3.999-0.546
			c0.362-1.712,0.962-3.092,1.796-4.149c0.832-1.052,2.036-1.861,3.615-2.427c1.572-0.573,3.399-0.854,5.476-0.854
			c2.06,0,3.732,0.243,5.021,0.728c1.286,0.484,2.235,1.096,2.842,1.826c0.606,0.736,1.03,1.665,1.271,2.787
			c0.137,0.696,0.207,1.953,0.207,3.771v5.454c0,3.805,0.087,6.208,0.26,7.217c0.175,1.008,0.52,1.974,1.034,2.896h-4.272
			C1149.465,704.636,1149.191,703.645,1149.07,702.51z M1148.729,693.372c-1.485,0.606-3.712,1.122-6.681,1.545
			c-1.683,0.243-2.871,0.517-3.567,0.819c-0.697,0.304-1.237,0.746-1.613,1.329c-0.382,0.584-0.569,1.231-0.569,1.942
			c0,1.093,0.413,2.002,1.238,2.728c0.826,0.728,2.035,1.092,3.625,1.092c1.576,0,2.979-0.345,4.204-1.035
			c1.229-0.688,2.129-1.632,2.705-2.829c0.439-0.924,0.658-2.287,0.658-4.09V693.372z"/>
		<path fill="#2E2747" d="M1168.137,701.827l0.591,3.614c-1.151,0.243-2.181,0.363-3.09,0.363c-1.485,0-2.637-0.235-3.454-0.705
			c-0.819-0.469-1.394-1.087-1.729-1.853c-0.333-0.765-0.5-2.374-0.5-4.828v-13.886h-3v-3.182h3v-5.979l4.068-2.454v8.433h4.113
			v3.182h-4.113v14.112c0,1.167,0.072,1.918,0.216,2.251c0.146,0.333,0.378,0.598,0.706,0.794c0.324,0.196,0.789,0.296,1.396,0.296
			C1166.797,701.986,1167.395,701.934,1168.137,701.827z"/>
		<path fill="#2E2747" d="M1172.161,676.873v-4.703h4.091v4.703H1172.161z M1172.161,705.484v-24.133h4.091v24.133H1172.161z"/>
		<path fill="#2E2747" d="M1180.955,693.419c0-4.47,1.242-7.781,3.726-9.933c2.077-1.788,4.607-2.681,7.591-2.681
			c3.318,0,6.03,1.087,8.137,3.26c2.105,2.177,3.158,5.178,3.158,9.013c0,3.104-0.466,5.551-1.396,7.329
			c-0.933,1.779-2.288,3.163-4.069,4.146c-1.778,0.986-3.723,1.478-5.829,1.478c-3.378,0-6.108-1.083-8.191-3.25
			C1181.996,700.615,1180.955,697.493,1180.955,693.419z M1185.16,693.419c0,3.09,0.673,5.404,2.021,6.941
			c1.349,1.54,3.045,2.306,5.09,2.306c2.031,0,3.72-0.77,5.069-2.315c1.348-1.546,2.021-3.901,2.021-7.068
			c0-2.985-0.678-5.247-2.034-6.784c-1.355-1.537-3.04-2.306-5.057-2.306c-2.045,0-3.741,0.766-5.09,2.294
			C1185.833,688.018,1185.16,690.327,1185.16,693.419z"/>
		<path fill="#2E2747" d="M1208.363,705.484v-24.133h3.679v3.432c1.775-2.652,4.333-3.978,7.685-3.978
			c1.453,0,2.788,0.26,4.01,0.784c1.218,0.524,2.132,1.207,2.737,2.057c0.606,0.849,1.03,1.855,1.272,3.021
			c0.151,0.758,0.228,2.084,0.228,3.978v14.839h-4.091v-14.68c0-1.666-0.158-2.911-0.478-3.739
			c-0.316-0.823-0.881-1.484-1.693-1.978c-0.809-0.489-1.761-0.736-2.852-0.736c-1.743,0-3.245,0.552-4.512,1.658
			c-1.264,1.105-1.896,3.203-1.896,6.294v13.181H1208.363z"/>
	</g>
	<path fill="#6A67F2" d="M747.674,787.018l-7.098-7.098c2.334-3.092,3.734-6.928,3.734-11.092c0-10.194-8.293-18.485-18.487-18.485
		c-10.191,0-18.484,8.291-18.484,18.485c0,10.192,8.293,18.484,18.484,18.484c4.167,0,8.003-1.4,11.095-3.735l7.099,7.098
		c0.504,0.507,1.167,0.76,1.83,0.76c0.66,0,1.322-0.253,1.827-0.76C748.685,789.666,748.685,788.028,747.674,787.018z
		 M712.517,768.828c0-7.339,5.968-13.311,13.307-13.311c7.341,0,13.311,5.972,13.311,13.311s-5.97,13.311-13.311,13.311
		C718.485,782.139,712.517,776.167,712.517,768.828z"/>
	<g>
		<path fill="#2E2747" d="M808.565,789.236l-8.839-33.316h4.521l5.068,21.839c0.544,2.289,1.014,4.562,1.41,6.817
			c0.848-3.56,1.347-5.612,1.499-6.158l6.341-22.498h5.318l4.772,16.862c1.197,4.183,2.061,8.115,2.592,11.794
			c0.422-2.104,0.976-4.521,1.66-7.249l5.225-21.407h4.432l-9.135,33.316h-4.249l-7.023-25.387c-0.591-2.121-0.94-3.424-1.045-3.909
			c-0.35,1.532-0.676,2.836-0.979,3.909l-7.066,25.387H808.565z"/>
		<path fill="#2E2747" d="M846.156,789.236V755.92h4.091v11.954c1.91-2.213,4.315-3.318,7.226-3.318c1.786,0,3.341,0.354,4.66,1.056
			c1.317,0.706,2.261,1.68,2.829,2.922c0.569,1.242,0.853,3.044,0.853,5.406v15.297h-4.091v-15.297c0-2.043-0.444-3.531-1.329-4.464
			c-0.887-0.931-2.141-1.396-3.763-1.396c-1.212,0-2.353,0.314-3.42,0.942c-1.069,0.629-1.832,1.481-2.286,2.556
			c-0.455,1.077-0.679,2.562-0.679,4.453v13.206H846.156z"/>
		<path fill="#2E2747" d="M872.062,760.625v-4.705h4.091v4.705H872.062z M872.062,789.236v-24.136h4.091v24.136H872.062z"/>
		<path fill="#2E2747" d="M891.31,785.575l0.591,3.614c-1.152,0.243-2.183,0.365-3.092,0.365c-1.483,0-2.636-0.235-3.453-0.706
			c-0.819-0.468-1.395-1.087-1.728-1.852c-0.333-0.764-0.5-2.374-0.5-4.828v-13.887h-3v-3.182h3v-5.978l4.069-2.455v8.433h4.112
			v3.182h-4.112v14.111c0,1.169,0.072,1.918,0.215,2.251c0.145,0.333,0.378,0.598,0.705,0.798c0.325,0.194,0.791,0.293,1.396,0.293
			C889.968,785.735,890.567,785.684,891.31,785.575z"/>
		<path fill="#2E2747" d="M911.832,781.463l4.227,0.524c-0.666,2.468-1.901,4.386-3.703,5.749c-1.805,1.363-4.107,2.045-6.909,2.045
			c-3.532,0-6.33-1.086-8.398-3.262c-2.068-2.173-3.104-5.223-3.104-9.147c0-4.061,1.047-7.211,3.138-9.453
			c2.091-2.243,4.802-3.363,8.135-3.363c3.228,0,5.865,1.099,7.908,3.294c2.048,2.199,3.068,5.289,3.068,9.271
			c0,0.243-0.008,0.605-0.021,1.092h-18c0.15,2.652,0.901,4.684,2.249,6.091c1.349,1.41,3.03,2.114,5.045,2.114
			c1.5,0,2.78-0.395,3.841-1.183C910.37,784.448,911.21,783.191,911.832,781.463z M898.401,774.849h13.477
			c-0.181-2.029-0.697-3.552-1.545-4.567c-1.303-1.575-2.993-2.362-5.068-2.362c-1.88,0-3.458,0.628-4.74,1.887
			C899.247,771.061,898.539,772.745,898.401,774.849z"/>
		<path fill="#2E2747" d="M932.604,777.169c0-4.472,1.242-7.78,3.726-9.933c2.076-1.786,4.607-2.681,7.591-2.681
			c3.318,0,6.03,1.086,8.136,3.262c2.106,2.175,3.158,5.176,3.158,9.011c0,3.104-0.466,5.549-1.396,7.327
			c-0.933,1.781-2.288,3.165-4.069,4.147c-1.778,0.987-3.723,1.479-5.829,1.479c-3.378,0-6.11-1.084-8.191-3.249
			C933.646,784.363,932.604,781.243,932.604,777.169z M936.809,777.169c0,3.091,0.674,5.404,2.023,6.941
			c1.349,1.538,3.045,2.308,5.09,2.308c2.031,0,3.719-0.772,5.069-2.317c1.345-1.547,2.021-3.901,2.021-7.069
			c0-2.983-0.678-5.245-2.035-6.783c-1.355-1.536-3.04-2.308-5.056-2.308c-2.045,0-3.741,0.766-5.09,2.296
			S936.809,774.079,936.809,777.169z"/>
		<path fill="#2E2747" d="M960.011,798.483v-33.383h3.728v3.137c0.878-1.228,1.87-2.148,2.978-2.763
			c1.105-0.612,2.445-0.919,4.022-0.919c2.059,0,3.877,0.529,5.454,1.59c1.573,1.061,2.764,2.556,3.567,4.489
			c0.803,1.931,1.202,4.051,1.202,6.354c0,2.467-0.44,4.691-1.328,6.667c-0.885,1.979-2.173,3.493-3.863,4.546
			c-1.688,1.054-3.466,1.58-5.329,1.58c-1.363,0-2.585-0.288-3.671-0.864c-1.082-0.574-1.973-1.302-2.669-2.181v11.747H960.011z
			 M963.715,777.305c0,3.106,0.628,5.4,1.885,6.886c1.258,1.485,2.782,2.228,4.568,2.228c1.818,0,3.375-0.77,4.672-2.308
			c1.294-1.537,1.941-3.919,1.941-7.146c0-3.077-0.633-5.38-1.896-6.91c-1.265-1.529-2.776-2.296-4.533-2.296
			c-1.743,0-3.285,0.816-4.627,2.442C964.387,771.832,963.715,774.199,963.715,777.305z"/>
		<path fill="#2E2747" d="M994.827,785.575l0.592,3.614c-1.151,0.243-2.182,0.365-3.091,0.365c-1.484,0-2.637-0.235-3.454-0.706
			c-0.817-0.468-1.394-1.087-1.727-1.852c-0.335-0.764-0.501-2.374-0.501-4.828v-13.887h-3v-3.182h3v-5.978l4.068-2.455v8.433h4.112
			v3.182h-4.112v14.111c0,1.169,0.072,1.918,0.215,2.251c0.146,0.333,0.378,0.598,0.706,0.798c0.325,0.194,0.789,0.293,1.396,0.293
			C993.485,785.735,994.085,785.684,994.827,785.575z"/>
		<path fill="#2E2747" d="M998.85,760.625v-4.705h4.091v4.705H998.85z M998.85,789.236v-24.136h4.091v24.136H998.85z"/>
		<path fill="#2E2747" d="M1009.169,789.236v-24.136h3.658v3.385c0.757-1.181,1.765-2.13,3.021-2.851s2.69-1.079,4.296-1.079
			c1.788,0,3.253,0.371,4.398,1.112c1.143,0.744,1.949,1.781,2.419,3.115c1.91-2.818,4.394-4.228,7.456-4.228
			c2.393,0,4.232,0.661,5.521,1.988c1.287,1.327,1.933,3.366,1.933,6.123v16.569h-4.067v-15.205c0-1.637-0.135-2.814-0.397-3.533
			c-0.267-0.718-0.748-1.299-1.443-1.74c-0.698-0.436-1.516-0.657-2.454-0.657c-1.698,0-3.106,0.564-4.228,1.693
			c-1.122,1.129-1.682,2.934-1.682,5.419v14.023h-4.091v-15.682c0-1.818-0.335-3.182-1-4.091c-0.666-0.909-1.759-1.363-3.273-1.363
			c-1.15,0-2.216,0.303-3.191,0.909c-0.979,0.605-1.687,1.493-2.127,2.657c-0.439,1.169-0.657,2.849-0.657,5.048v12.521H1009.169z"
			/>
		<path fill="#2E2747" d="M1047.962,760.625v-4.705h4.091v4.705H1047.962z M1047.962,789.236v-24.136h4.091v24.136H1047.962z"/>
		<path fill="#2E2747" d="M1056.119,789.236v-3.318l15.363-17.636c-1.742,0.092-3.282,0.136-4.615,0.136h-9.839v-3.317h19.727v2.705
			l-13.069,15.315l-2.521,2.797c1.833-0.136,3.552-0.204,5.158-0.204h11.16v3.522H1056.119z"/>
		<path fill="#2E2747" d="M1097.298,786.26c-1.515,1.285-2.974,2.194-4.374,2.728c-1.401,0.527-2.906,0.794-4.512,0.794
			c-2.652,0-4.688-0.648-6.113-1.943c-1.424-1.295-2.136-2.95-2.136-4.965c0-1.182,0.27-2.263,0.808-3.238
			c0.537-0.979,1.241-1.762,2.112-2.353c0.872-0.591,1.853-1.039,2.943-1.342c0.803-0.213,2.015-0.416,3.637-0.612
			c3.303-0.395,5.733-0.864,7.294-1.41c0.015-0.56,0.023-0.918,0.023-1.069c0-1.666-0.387-2.839-1.157-3.521
			c-1.048-0.924-2.6-1.387-4.66-1.387c-1.925,0-3.345,0.338-4.263,1.013c-0.915,0.676-1.595,1.866-2.034,3.579l-3.999-0.544
			c0.363-1.715,0.962-3.096,1.797-4.149c0.832-1.052,2.035-1.864,3.614-2.431c1.573-0.569,3.399-0.853,5.476-0.853
			c2.06,0,3.732,0.241,5.021,0.727c1.287,0.485,2.236,1.095,2.842,1.829c0.606,0.736,1.03,1.665,1.272,2.785
			c0.136,0.698,0.206,1.953,0.206,3.771v5.454c0,3.805,0.087,6.209,0.26,7.216c0.175,1.009,0.52,1.973,1.034,2.898h-4.272
			C1097.692,788.388,1097.42,787.394,1097.298,786.26z M1096.957,777.121c-1.485,0.605-3.711,1.122-6.68,1.547
			c-1.684,0.241-2.872,0.514-3.568,0.817c-0.697,0.303-1.236,0.749-1.613,1.332c-0.381,0.581-0.569,1.23-0.569,1.941
			c0,1.09,0.413,1.999,1.239,2.727c0.825,0.727,2.034,1.091,3.624,1.091c1.577,0,2.979-0.343,4.204-1.032
			c1.229-0.691,2.129-1.635,2.705-2.829c0.439-0.927,0.658-2.291,0.658-4.091V777.121z"/>
		<path fill="#2E2747" d="M1116.366,785.575l0.591,3.614c-1.15,0.243-2.181,0.365-3.09,0.365c-1.485,0-2.636-0.235-3.455-0.706
			c-0.816-0.468-1.393-1.087-1.726-1.852c-0.333-0.764-0.501-2.374-0.501-4.828v-13.887h-2.999v-3.182h2.999v-5.978l4.068-2.455
			v8.433h4.112v3.182h-4.112v14.111c0,1.169,0.071,1.918,0.215,2.251c0.145,0.333,0.38,0.598,0.706,0.798
			c0.324,0.194,0.789,0.293,1.396,0.293C1115.024,785.735,1115.626,785.684,1116.366,785.575z"/>
		<path fill="#2E2747" d="M1120.389,760.625v-4.705h4.091v4.705H1120.389z M1120.389,789.236v-24.136h4.091v24.136H1120.389z"/>
		<path fill="#2E2747" d="M1129.185,777.169c0-4.472,1.242-7.78,3.728-9.933c2.074-1.786,4.605-2.681,7.591-2.681
			c3.317,0,6.03,1.086,8.135,3.262c2.105,2.175,3.16,5.176,3.16,9.011c0,3.104-0.467,5.549-1.397,7.327
			c-0.934,1.781-2.287,3.165-4.069,4.147c-1.779,0.987-3.723,1.479-5.828,1.479c-3.38,0-6.11-1.084-8.193-3.249
			C1130.225,784.363,1129.185,781.243,1129.185,777.169z M1133.389,777.169c0,3.091,0.674,5.404,2.022,6.941
			c1.349,1.538,3.045,2.308,5.092,2.308c2.029,0,3.718-0.772,5.065-2.317c1.35-1.547,2.025-3.901,2.025-7.069
			c0-2.983-0.678-5.245-2.035-6.783c-1.354-1.536-3.041-2.308-5.056-2.308c-2.047,0-3.743,0.766-5.092,2.296
			S1133.389,774.079,1133.389,777.169z"/>
		<path fill="#2E2747" d="M1156.594,789.236v-24.136h3.68v3.433c1.775-2.653,4.334-3.978,7.684-3.978
			c1.455,0,2.79,0.262,4.011,0.782c1.219,0.525,2.133,1.209,2.739,2.057c0.605,0.85,1.028,1.858,1.271,3.023
			c0.151,0.758,0.229,2.085,0.229,3.976v14.843h-4.091v-14.681c0-1.667-0.158-2.914-0.479-3.738
			c-0.316-0.825-0.881-1.484-1.691-1.979c-0.812-0.491-1.764-0.737-2.854-0.737c-1.742,0-3.244,0.555-4.511,1.658
			c-1.264,1.107-1.896,3.205-1.896,6.297v13.181H1156.594z"/>
	</g>
</g>
<g>
	<path fill="#B8DE57" d="M1747.82,719.267c0,0-69.379-3.303-91.653,43.242c-15.43,32.24-5.653,57.671-31.309,72.354
		c-43.738,25.027-61.628,71.163,6.407,118.117h104.161c0,0,29.453-42.556,2.242-69.323c-27.214-26.767-43.556-68.873,0-90.116
		C1784.363,770.763,1721.372,739.198,1747.82,719.267z"/>
	<g>
		<path fill="#FFFFFF" d="M1661.254,790.937c2.942,36.38-6.883,45.949-21.757,60.431c-6.019,5.861-12.841,12.505-19.836,22.026
			c-23.984,32.648,23.031,79.477,23.509,79.945l0.978-0.72c-0.474-0.461-46.876-46.676-23.393-78.642
			c6.94-9.449,13.727-16.057,19.715-21.888c14.546-14.162,25.053-24.393,22.076-61.229c-4.086-50.536,81.577-70.919,82.443-71.117
			l-0.337-1.06C1743.773,718.886,1657.098,739.5,1661.254,790.937z"/>
	</g>
	<g>
		<path fill="#FFFFFF" d="M1687.312,780.031c2.408,44.408-4.037,54.536-21.26,81.611c-2.654,4.17-5.663,8.901-8.895,14.168
			c-23.628,38.529,5.468,77.084,5.766,77.469l1.08-0.601c-0.291-0.38-28.974-38.412-5.7-76.361c3.226-5.26,6.23-9.984,8.884-14.155
			c17.349-27.267,23.84-37.47,21.415-82.185c-2.734-50.484,56.773-59.511,57.374-59.594l-0.212-1.083
			C1745.15,719.387,1684.523,728.56,1687.312,780.031z"/>
	</g>
	<g>
		<path fill="#FFFFFF" d="M1724.434,757.679c5.392,20.279,0.282,25.693-9.898,36.483c-2.261,2.396-4.824,5.112-7.558,8.295
			c-15.359,17.892-14.639,42.964-12.76,60.268c0.487,4.48,2.346,8.917,4.499,14.055c6.374,15.208,15.1,36.036-8.088,75.958
			l1.156,0.484c23.435-40.337,14.6-61.417,8.148-76.811c-2.123-5.066-3.958-9.445-4.429-13.789
			c-1.859-17.124-2.585-41.926,12.518-59.516c2.715-3.165,5.267-5.872,7.52-8.258c10.439-11.063,15.68-16.615,10.15-37.413
			c-6.48-24.373,21.423-36.983,21.706-37.108l-0.593-0.972C1746.513,719.482,1717.729,732.47,1724.434,757.679z"/>
	</g>
</g>
<g>
	<g opacity="0.4">
		<path fill="#6A67F2" d="M1760.729,586.652c6.695-1.153,14.767,11.193,18.841,16.627c5.54,7.377,4.802,17.931,1.039,26.352
			c-1.929,4.316-4.691,8.44-8.715,10.923c-4.023,2.483-6.074,6.448-9.656,3.361c-3.748-3.229-12.185-12.282-14.549-19.548
			c-1.624-4.991-2.256-10.466-0.693-15.477C1749.02,602.407,1754.033,587.806,1760.729,586.652z"/>
		<path fill="#6A67F2" d="M1772.733,677.714c5.931-3.714,13.146-5.886,19.988-4.431c2.541,0.543,4.955,1.561,7.268,2.746
			c5.075,2.606,17.019,6.021,17.072,11.729c0.038,4.015-9.3,8.454-11.816,11.586c-3.659,4.558-7.978,9.173-13.706,10.339
			c-2.32,0.472-4.723,0.332-7.072,0.021c-10.688-1.413-20.857-6.471-28.436-14.138l1.11-3.886
			C1761.938,686.584,1766.802,681.43,1772.733,677.714z"/>
		<path fill="#6A67F2" d="M1738.968,651.956c13.89,8.515,21.038,26.689,16.675,42.385l-1.496,0.271
			c-7.874-2.985-15.855-6.025-22.657-10.99c-6.8-4.965-12.396-12.177-13.532-20.521c-0.583-4.273-1.058-11.182,2.17-14.048
			C1724.825,644.879,1733.609,648.673,1738.968,651.956z"/>
		<path fill="#6A67F2" d="M1692.581,705.362c1.951-1.513,4.215-2.602,6.574-3.326c4.981-1.532,10.738-1.344,15.011,1.643
			c2.795,1.955,4.717,4.902,6.496,7.815c2.912,4.771,5.687,9.793,6.519,15.316c1.156,7.686-1.556,15.365-4.225,22.662l-1.917,2.016
			c-7.568-1.222-15.118-3.352-21.582-7.479c-6.464-4.124-11.775-10.437-13.513-17.905
			C1684.204,718.637,1686.523,710.065,1692.581,705.362z"/>
		<path fill="#6A67F2" d="M1746.36,737.629c9.265-1.548,18.459,1.689,26.882,5.846c6.613,3.26,10.093,18.443,7.891,22.795
			c-0.949,1.875-19.446,7.51-25.604,7.051c-7.52-0.56-25.832-13.785-32.2-17.814C1717.716,751.953,1737.097,739.179,1746.36,737.629
			z"/>
		<path fill="#6A67F2" d="M1672.884,749.748c10.738,0.692,20.148,10.344,20.57,21.098c0.13,3.377-0.519,6.744-1.405,10.008
			c-2.263,8.334-6.106,16.232-11.27,23.154l-2.24-0.548c-9.835-9.181-16.576-21.62-18.891-34.875
			c-0.999-5.715-0.83-12.461,3.606-16.197C1665.864,750.19,1669.479,749.527,1672.884,749.748z"/>
		<path fill="#6A67F2" d="M1716.296,786.69c3.07,0.269,6.039,1.213,8.946,2.234c6.359,2.231,13.455,5.88,14.605,12.521
			c0.703,4.05-1.102,8.104-3.287,11.583c-2.688,4.277-6.183,8.259-10.794,10.317c-8.697,3.88-18.771,0.075-27.302-4.159
			c-6.99-3.469-14.615-8.318-15.728-16.043l-0.629-0.605c5.481-3.331,10.452-7.45,15.973-10.715
			C1703.6,788.559,1709.906,786.133,1716.296,786.69z"/>
		
			<linearGradient id="SVGID_3_" gradientUnits="userSpaceOnUse" x1="1636.9346" y1="833.4844" x2="1687.8574" y2="833.4844" gradientTransform="matrix(0.9638 0.2668 -0.2668 0.9638 256.5745 -431.3021)">
			<stop  offset="0" style="stop-color:#AE5FE2"/>
			<stop  offset="1" style="stop-color:#6A389D"/>
		</linearGradient>
		<path fill="url(#SVGID_3_)" d="M1625.6,793.057c9.931-2.088,20.922,2.447,26.49,10.928c3.171,4.831,4.6,10.584,5.653,16.269
			c0.499,2.692,0.931,5.42,0.853,8.158c-0.085,3.147-0.846,6.278-2.214,9.114l-1.456,0.374c-2.494,0.205-4.989,0.413-7.482,0.62
			c-2.649,0.219-5.328,0.435-7.958,0.041c-9.456-1.418-15.88-10.099-20.955-18.205c-3.536-5.646-7.067-12.454-4.637-18.659
			C1615.736,796.99,1620.651,794.1,1625.6,793.057z"/>
		<path fill="#6A67F2" d="M1695.055,837.158c6.012,2.215,12.239,6.602,12.678,12.994c0.207,3.021-0.951,5.966-2.301,8.677
			c-2.609,5.241-6.41,10.387-11.98,12.199c-6.777,2.203-14.024-1.108-20.2-4.663c-4.64-2.67-9.281-5.627-12.481-9.918
			c-3.199-4.292-4.704-10.219-2.509-15.102l-4.049-1.238C1666.58,833.4,1681.854,832.298,1695.055,837.158z"/>
	</g>
	<g>
		<g>
			<g>
				<path fill="#6A67F2" d="M1756.493,692.579c7.688,0.655,14.875,0.542,22.506-0.601c7.349-1.097,14.951-3.203,22.383-3.223
					c0.599-0.001,0.828,0.853,0.219,1.057c-7.38,2.464-15.792,3.11-23.489,4.249c-7.182,1.062-14.801,1.952-21.84-0.28
					C1755.528,693.545,1755.698,692.513,1756.493,692.579z"/>
			</g>
			<g>
				<path fill="#6A67F2" d="M1729.89,662.606c3.479,3.839,6.351,8.204,9.528,12.296c3.856,4.961,8.593,13.253,14.918,14.874
					c0.698,0.182,0.499,1.135-0.2,1.086c-4.962-0.348-7.652-4.349-10.61-7.944c-5.066-6.158-10.654-12.536-14.527-19.521
					C1728.695,662.849,1729.405,662.069,1729.89,662.606z"/>
			</g>
			<g>
				<path fill="#6A67F2" d="M1702.48,713.771c10.251,8.914,16.144,23.589,18.86,36.629c0.052,0.262-0.25,0.567-0.489,0.33
					c-3.875-3.846-4.445-9.879-6.168-14.864c-2.852-8.238-7.658-14.634-13.362-21.064
					C1700.722,714.126,1701.838,713.213,1702.48,713.771z"/>
			</g>
			<g>
				<path fill="#6A67F2" d="M1724.444,750.644c8.698,5.149,16.526,3.246,25.974,3.716c7.663,0.383,15.347,3.346,21.824,7.323
					c0.632,0.387,0.21,1.26-0.485,1.028c-5.016-1.681-9.767-4.163-14.922-5.438c-4.955-1.228-9.833-0.957-14.875-0.731
					c-6.818,0.308-12.564-0.859-18.154-4.91C1723.264,751.239,1723.873,750.308,1724.444,750.644z"/>
			</g>
			<g>
				<path fill="#6A67F2" d="M1671.298,760.086c3.904,5.858,5.914,13.024,7.308,19.865c1.328,6.511-0.245,17.884,4.941,22.529
					c0.567,0.512-0.042,1.269-0.685,1.056c-5.609-1.858-4.396-9.198-4.81-13.898c-0.908-10.356-4.527-19.431-7.283-29.289
					C1670.68,760.034,1671.104,759.798,1671.298,760.086z"/>
			</g>
			<g>
				<path fill="#6A67F2" d="M1683.846,801.878c7.161,4.17,18.72-0.274,26.763-0.024c6.753,0.207,13.5,1.326,19.875,3.58
					c0.972,0.342,0.429,1.977-0.551,1.71c-9.237-2.521-18.347-4.009-27.966-3.167c-6.508,0.57-12.947,2.811-18.645-1.289
					C1682.875,802.365,1683.376,801.606,1683.846,801.878z"/>
			</g>
			<g>
				
					<linearGradient id="SVGID_4_" gradientUnits="userSpaceOnUse" x1="1643.4063" y1="838.3457" x2="1690.1055" y2="838.3457" gradientTransform="matrix(0.9638 0.2668 -0.2668 0.9638 256.5745 -431.3021)">
					<stop  offset="0" style="stop-color:#AE5FE2"/>
					<stop  offset="1" style="stop-color:#6A389D"/>
				</linearGradient>
				<path fill="url(#SVGID_4_)" d="M1620.712,802.917c15.358,9.088,31.302,18.109,37.904,35.596c0.439,1.162-1.388,1.792-1.82,0.63
					c-6.55-17.574-22.407-24.94-36.538-35.528C1619.88,803.33,1620.305,802.675,1620.712,802.917z"/>
			</g>
			<g>
				<path fill="#6A67F2" d="M1657.622,839.757c6.763,0.595,12.72,3.327,18.706,6.376c6.565,3.344,13.441,5.74,20.014,8.915
					c0.539,0.26,0.435,1.207-0.22,1.205c-5.925-0.021-11.665-3.412-16.801-6.081c-7.141-3.711-14.017-7.303-21.949-9.057
					C1656.486,840.921,1656.748,839.679,1657.622,839.757z"/>
			</g>
		</g>
		<g>
			<path fill="#6A67F2" d="M1729.762,739.646c13.087-19.244,23.311-40.173,28.235-63.012c4.442-20.6,4.295-41.401,1.627-62.218
				c-0.216-1.671,2.557-2.261,2.903-0.601c4.505,21.57,3.559,44.25-1.408,65.675c-20.309,87.564-118.904,135.265-126.051,227.758
				c-0.054,0.716-1.249,0.639-1.248-0.066c0.054-22.109,7.146-43.077,17.523-62.411
				C1672.18,805.949,1705.149,775.834,1729.762,739.646z"/>
		</g>
	</g>
</g>
<g>
	<g>
		<path d="M511.45,292.834c25.918,0,60.245,5.343,98.399,50.78c38.157,45.439,46.222,73.881,37.459,87.864
			c-8.764,13.978-54.769,18.191-92-12.638C480.867,357.202,494.209,292.834,511.45,292.834z"/>
	</g>
	<g>
		<linearGradient id="SVGID_5_" gradientUnits="userSpaceOnUse" x1="612.3652" y1="403.1494" x2="592.293" y2="391.2957">
			<stop  offset="2.700000e-007" style="stop-color:#FFFFFF"/>
			<stop  offset="1" style="stop-color:#D3C9D5"/>
		</linearGradient>
		<path fill="url(#SVGID_5_)" d="M564.254,407.493c-16.851-13.8-31.586-32.596-40.986-52.219
			c-8.85-18.475-17.18-41.766-11.464-62.435c-0.116,0-0.236-0.004-0.353-0.004c-17.241,0-30.583,64.368,43.857,126.006
			c23.276,19.275,49.981,24.851,68.872,22.909C602.072,433.763,582.402,422.356,564.254,407.493z"/>
	</g>
	<g>
		<path d="M467.708,289.28c-33.308-5.571-66.981-3.313-120.322,22.673c-53.342,25.986-67.344,51.027-65.026,67.363
			c2.319,16.336,20.83,37.277,77.407,23.248c56.579-14.028,83.248-29.403,95.772-38.891
			C468.063,354.188,484.714,292.125,467.708,289.28z"/>
	</g>
	<linearGradient id="SVGID_6_" gradientUnits="userSpaceOnUse" x1="500.396" y1="859.2969" x2="592.481" y2="859.2969">
		<stop  offset="5.400000e-007" style="stop-color:#24122F"/>
		<stop  offset="1" style="stop-color:#251933"/>
	</linearGradient>
	<path fill="url(#SVGID_6_)" d="M500.697,903.945c0.396,5.408-0.529,20.26,14.492,19.854c22.883-0.619,90.089-79.004,75.147-112.782
		c-14.94-33.777-64.306-9.744-75.674,25.659C503.295,872.077,499.185,883.34,500.697,903.945z"/>
	<path fill="#FBA19B" d="M507.516,824.17c0.306,3.898,19.983,81.604,46.322,114.243c0,0,96.137-102.022,64.063-79.289
		c-24.118,17.097-35.685-15.953-42.425-54.686C569.099,767.781,505.217,794.688,507.516,824.17z"/>
	<path fill="#6A67F2" d="M291.212,746.386c0,0-21.761,13.966-27.608,36.052c-5.845,22.085-7.794,56.511-20.461,56.837
		c-12.666,0.323-11.53-0.65-11.53-0.65s-17.173-53.591-11.976-96.785c5.198-43.197,6.619-63.658,16.686-66.581
		c10.069-2.924,52.939,0,58.787-5.196C300.954,664.864,308.424,735.018,291.212,746.386z"/>
	<path fill="#FFFFFF" d="M232.14,741.174c4.34-37.964,6.052-59.226,12.36-67.003c-3.506,0.229-6.373,0.563-8.178,1.087
		c-10.067,2.923-11.488,23.384-16.686,66.581c-5.197,43.194,11.976,96.784,11.976,96.784s-1.123,0.968,11.433,0.652
		C239.375,825.976,227.74,779.658,232.14,741.174z"/>
	<path d="M554.59,497.809c14.109,55.841-5.464,139.703-78.74,189.466c-60.338,40.977-160.281,90.94-173.92,98.409
		c0,0-43.035-43.196-22.898-115.949c0,0,127.303-46.414,143.229-71.855c7.396-11.813-4.711-48.928-4.226-93.748
		C418.523,459.311,544.651,458.471,554.59,497.809z"/>
	<path d="M378.523,552.336c11.692,76,96.189,287.912,124.121,364.561c0,0,7.795-130.564,87.691-105.88
		c0,0-45.469-165.64-54.563-193.569c-9.094-27.933-58.46-170.837-74.7-184.479C444.833,419.329,366.832,476.336,378.523,552.336z"/>
	<g>
		
			<rect x="292.544" y="698.889" transform="matrix(0.3111 0.9504 -0.9504 0.3111 981.6335 47.3157)" fill="#B8DE57" width="331.273" height="3.713"/>
	</g>
	<path d="M534.446,295.72c9.581,4.386,27.968,34.304,30.892,73.279c2.924,38.973,10.114,131.496,10.114,195.349
		c0,0-51.934,3.946-65.115,8.06c-89.141,27.818-166.9-30.187-166.9-30.187s53.798-218.092,66.467-240.179
		C422.569,279.957,524.865,291.336,534.446,295.72z"/>
	<path fill="#FBA19B" d="M502.348,267.696l-0.05,24.171c-1.479,1.868-11.654,7.116-29.572,0.107l0.073-33.923
		C472.798,258.051,483.983,262.612,502.348,267.696z"/>
	<path fill="#F28077" d="M500.647,281.704c-8.408,2.879-20.936,1.965-27.89-4.389l0.041-19.264c0,0,11.184,5.283,29.547,11.17
		l-0.026,12.025C501.771,281.365,501.216,281.507,500.647,281.704z"/>
	<path fill="#FBA19B" d="M500.556,281.729c-8.508-0.078-24-11.701-27.425-19.488c-1.222-2.776-0.553-9.959-0.544-13.688
		c0.028-13.42,7.342-21.259,16.007-24.299c3.652-1.271,15.338-0.988,18.696-0.286c11.059,2.339,12.665,13.01,12.708,24.306
		C520.048,260.947,515.556,281.867,500.556,281.729z"/>
	<g>
		<linearGradient id="SVGID_7_" gradientUnits="userSpaceOnUse" x1="506.813" y1="250.5728" x2="518.9233" y2="250.5728">
			<stop  offset="5.400000e-007" style="stop-color:#24122F"/>
			<stop  offset="1" style="stop-color:#251933"/>
		</linearGradient>
		<path fill="url(#SVGID_7_)" d="M507.296,261.667l-0.483-1.791c2.366-0.639,5.109-1.9,5.416-2.825
			c0.021-0.065,0.056-0.171-0.124-0.399c-4.576-5.803-3.041-13.497-2.974-13.823l0.047-0.218l0.139-0.174
			c0.147-0.183,3.659-4.432,9.606-2.415l-0.597,1.759c-4.143-1.408-6.777,0.982-7.419,1.659c-0.202,1.271-0.962,7.473,2.655,12.062
			c0.661,0.838,0.597,1.623,0.428,2.133C513.218,259.966,508.278,261.403,507.296,261.667z"/>
	</g>
	<path d="M483.904,229.797c7.633,8.124,29.76-1.974,35.241,6.094c5.847,8.606,19.208-14.001,4.505-24.644
		c-12.787-9.255-21.477-1.299-33.798,1.949c-12.321,3.249-16.178-1.829-23.811,8.726c-7.632,10.556-1.218,30.148,5.848,41.515
		c3.093,4.98-2.925-19.994,6.169-20.646C487.154,242.143,483.904,229.797,483.904,229.797z"/>
	<g>
		<path d="M606.36,362.688c20.076-19.721,77.122-67.506,96.441-58.058c19.32,9.449,35.233,41.564,15.213,73.47
			c-20.02,31.906-75.062,64.734-97.566,63.617C597.944,440.598,571.317,397.107,606.36,362.688z"/>
		
			<ellipse transform="matrix(-0.9668 0.2557 -0.2557 -0.9668 1477.4769 476.8577)" cx="707.744" cy="334.462" rx="16.808" ry="24.846"/>
	</g>
	<g>
		<path d="M350.663,407.757c-11.343,25.754-46.629,91.271-68.075,89.651c-21.446-1.621-48.122-25.558-41.345-62.61
			c6.779-37.051,45.745-87.932,67.062-95.231C329.623,332.271,370.464,362.806,350.663,407.757z"/>
		
			<ellipse transform="matrix(0.8033 -0.5956 0.5956 0.8033 -228.1329 251.7531)" cx="267.025" cy="471.213" rx="16.807" ry="24.846"/>
	</g>
	<g>
		<path fill="#FBA19B" d="M260.594,519.399c0,0,6.325-2.718,10.38-4.814c4.055-2.095,6.064-4.498,7.276-12.067
			c1.211-7.57,9.102-20.851,5.752-27.616c-3.347-6.765-14.866-29.032-34.518-22.014c-19.65,7.016-36.178,36.681-22.778,36.144
			c0,0-7.466,10.994,5.334,13.33c0,0-2.417,14.529,9.851,11.648C241.892,514.01,240.541,533.661,260.594,519.399z"/>
		<linearGradient id="SVGID_8_" gradientUnits="userSpaceOnUse" x1="241.8916" y1="509.0747" x2="255.5464" y2="509.0747">
			<stop  offset="5.400000e-007" style="stop-color:#24122F"/>
			<stop  offset="1" style="stop-color:#251933"/>
		</linearGradient>
		<path fill="url(#SVGID_8_)" d="M241.892,514.01c1.837-2.232,4.025-4.015,6.286-5.689c2.296-1.625,4.673-3.14,7.369-4.182
			c-1.857,2.251-4.03,4.026-6.286,5.689C246.97,511.446,244.605,512.953,241.892,514.01z"/>
		<linearGradient id="SVGID_9_" gradientUnits="userSpaceOnUse" x1="232.0259" y1="495.6777" x2="250.2939" y2="495.6777">
			<stop  offset="5.400000e-007" style="stop-color:#24122F"/>
			<stop  offset="1" style="stop-color:#251933"/>
		</linearGradient>
		<path fill="url(#SVGID_9_)" d="M232.026,502.324c2.459-2.951,5.344-5.413,8.365-7.695c1.532-1.109,3.087-2.196,4.737-3.145
			c1.641-0.955,3.344-1.835,5.166-2.454c-2.861,2.544-5.791,4.835-8.798,7.089C238.464,498.333,235.407,500.511,232.026,502.324z"/>
		<linearGradient id="SVGID_10_" gradientUnits="userSpaceOnUse" x1="226.5571" y1="483.6025" x2="237.6201" y2="483.6025">
			<stop  offset="5.400000e-007" style="stop-color:#24122F"/>
			<stop  offset="1" style="stop-color:#251933"/>
		</linearGradient>
		<path fill="url(#SVGID_10_)" d="M226.557,489.018c0.352-1.317,0.981-2.514,1.709-3.631c0.723-1.125,1.595-2.146,2.536-3.093
			c1.903-1.865,4.196-3.414,6.818-4.107c-0.918,1.01-1.876,1.862-2.786,2.767c-0.918,0.889-1.838,1.757-2.727,2.66
			C230.275,485.38,228.544,487.205,226.557,489.018z"/>
	</g>
	<linearGradient id="SVGID_11_" gradientUnits="userSpaceOnUse" x1="497.2617" y1="267.8491" x2="508.3032" y2="267.8491">
		<stop  offset="0" style="stop-color:#FF5F59"/>
		<stop  offset="1" style="stop-color:#FF5F5A"/>
	</linearGradient>
	<path fill="url(#SVGID_11_)" d="M508.303,262.763c0,0-0.729,1.055-3.166,1.381c-2.436,0.325-7.958,1.379-7.875,5.277
		c0.08,3.897,6.982,5.114,8.525,0.731C507.329,265.768,508.303,262.763,508.303,262.763z"/>
	<g>
		<path fill="#6A67F2" d="M554.39,852.541c5.447-6.198,1.237-12.992,1.237-20.088c0-12.91,30.803-17.074,32.273-17.702
			c11.728,32.499,44.006,43.623,66.257,27.851c32.071-22.735,49.692,0.325,49.692,0.325l-151.89,105.419
			c-25.023-31.008-26.473-54.174-32.021-77.243C531.575,853.243,544.731,863.528,554.39,852.541z"/>
		<path fill="#FFFFFF" d="M549.253,946.561c6.504,8.771,13.849,19.452,54.683-10.827c16.193-12.006,67.701-53.646,84.362-69.908
			c25.358-24.753,12.755-23.624,8.829-28.917c-6.503-8.77-44.878,8.666-85.713,38.945
			C570.581,906.132,542.75,937.789,549.253,946.561z"/>
		
			<ellipse transform="matrix(-0.8033 0.5956 -0.5956 -0.8033 1673.4437 1245.6516)" cx="630.998" cy="899.201" rx="92.871" ry="19.771"/>
		<g>
			<rect x="566.019" y="939.433" fill="#FFFFFF" width="31.178" height="1.856"/>
		</g>
		<g>
			<rect x="584.773" y="923.112" fill="#FFFFFF" width="31.181" height="1.856"/>
		</g>
		<g>
			<rect x="603.53" y="906.793" fill="#FFFFFF" width="31.181" height="1.857"/>
		</g>
		<g>
			<rect x="622.288" y="890.473" fill="#FFFFFF" width="31.178" height="1.856"/>
		</g>
		<g>
			<rect x="641.042" y="874.152" fill="#FFFFFF" width="31.179" height="1.856"/>
		</g>
		<g>
			<rect x="659.799" y="857.831" fill="#FFFFFF" width="31.178" height="1.858"/>
		</g>
		<g>
			<linearGradient id="SVGID_12_" gradientUnits="userSpaceOnUse" x1="585.6733" y1="850.7266" x2="615.6836" y2="850.7266">
				<stop  offset="5.400000e-007" style="stop-color:#24122F"/>
				<stop  offset="1" style="stop-color:#251933"/>
			</linearGradient>
			<path fill="url(#SVGID_12_)" d="M587.283,859.635l-1.61-0.925c10.216-17.799,29.808-16.899,30.01-16.879l-0.106,1.854
				C615.392,843.686,596.916,842.852,587.283,859.635z"/>
		</g>
		<g>
			<linearGradient id="SVGID_13_" gradientUnits="userSpaceOnUse" x1="604.7534" y1="856.4531" x2="634.7651" y2="856.4531">
				<stop  offset="5.400000e-007" style="stop-color:#24122F"/>
				<stop  offset="1" style="stop-color:#251933"/>
			</linearGradient>
			<path fill="url(#SVGID_13_)" d="M606.366,865.36l-1.613-0.925c10.213-17.798,29.808-16.892,30.012-16.879l-0.108,1.853
				C634.482,849.412,615.998,848.572,606.366,865.36z"/>
		</g>
	</g>
	<g>
		<linearGradient id="SVGID_14_" gradientUnits="userSpaceOnUse" x1="255.7627" y1="776.7178" x2="267.1396" y2="776.7178">
			<stop  offset="5.400000e-007" style="stop-color:#24122F"/>
			<stop  offset="1" style="stop-color:#251933"/>
		</linearGradient>
		<path fill="url(#SVGID_14_)" d="M266.743,781.422l-1.783-0.512c0.565-1.969,0.396-3.471-0.521-4.598
			c-1.912-2.354-6.813-2.547-8.543-2.417l-0.134-1.854c0.295-0.017,7.211-0.483,10.12,3.101
			C267.189,776.753,267.479,778.866,266.743,781.422z"/>
	</g>
	<g>
		<linearGradient id="SVGID_15_" gradientUnits="userSpaceOnUse" x1="252.5942" y1="789.5059" x2="263.9722" y2="789.5059">
			<stop  offset="5.400000e-007" style="stop-color:#24122F"/>
			<stop  offset="1" style="stop-color:#251933"/>
		</linearGradient>
		<path fill="url(#SVGID_15_)" d="M263.576,794.209l-1.784-0.512c0.565-1.966,0.396-3.467-0.519-4.596
			c-2.293-2.829-8.479-2.426-8.543-2.418l-0.135-1.853c0.297-0.017,7.214-0.482,10.12,3.099
			C264.021,789.541,264.312,791.653,263.576,794.209z"/>
	</g>
	<g>
		<linearGradient id="SVGID_16_" gradientUnits="userSpaceOnUse" x1="491.0908" y1="241.1338" x2="503.5903" y2="241.1338">
			<stop  offset="5.400000e-007" style="stop-color:#24122F"/>
			<stop  offset="1" style="stop-color:#251933"/>
		</linearGradient>
		<path fill="url(#SVGID_16_)" d="M492.003,243.214l-0.913-1.618c3.973-2.236,7.26-3.003,9.764-2.279
			c1.935,0.562,2.659,1.819,2.735,1.959l-1.626,0.895C501.941,242.138,499.852,238.795,492.003,243.214z"/>
	</g>
	<linearGradient id="SVGID_17_" gradientUnits="userSpaceOnUse" x1="494.9478" y1="248.334" x2="499.1079" y2="248.334">
		<stop  offset="5.400000e-007" style="stop-color:#24122F"/>
		<stop  offset="1" style="stop-color:#251933"/>
	</linearGradient>
	<path fill="url(#SVGID_17_)" d="M495.057,247.804c-0.366,1.364,0.217,2.707,1.306,3c1.088,0.292,2.268-0.576,2.635-1.941
		c0.368-1.363-0.218-2.705-1.304-2.999C496.605,245.572,495.425,246.441,495.057,247.804z"/>
	<linearGradient id="SVGID_18_" gradientUnits="userSpaceOnUse" x1="511.6851" y1="248.334" x2="515.8447" y2="248.334">
		<stop  offset="5.400000e-007" style="stop-color:#24122F"/>
		<stop  offset="1" style="stop-color:#251933"/>
	</linearGradient>
	<path fill="url(#SVGID_18_)" d="M511.795,247.804c-0.367,1.364,0.217,2.707,1.306,3c1.088,0.292,2.267-0.576,2.635-1.941
		c0.365-1.363-0.218-2.705-1.306-2.999C513.342,245.572,512.163,246.441,511.795,247.804z"/>
	<circle fill="#FBA19B" cx="473.919" cy="249.208" r="8.897"/>
	<g>
		<path fill="#F28077" d="M473.825,255.735c-1.305,0-2.573-0.727-2.739-0.827l0.95-1.597c0.418,0.247,1.483,0.707,2.089,0.531
			c0.167-0.047,0.279-0.142,0.37-0.315c0.15-0.285,0.15-0.285-0.321-0.785c-0.61-0.646-1.528-1.621-1.208-3.559
			c0.213-1.302,0.847-2.231,1.356-2.978c0.765-1.117,0.765-1.117-0.039-1.684c-1.523-1.066-4.405,1.466-5.295,2.437l-1.37-1.254
			c0.464-0.505,4.623-4.883,7.731-2.702c2.305,1.617,1.222,3.203,0.508,4.25c-0.448,0.657-0.912,1.335-1.059,2.231
			c-0.168,1.029,0.227,1.451,0.727,1.983c0.518,0.548,1.38,1.466,0.614,2.924c-0.329,0.624-0.851,1.052-1.511,1.239
			C474.364,255.704,474.094,255.735,473.825,255.735z"/>
	</g>
	<g>
		
			<linearGradient id="SVGID_19_" gradientUnits="userSpaceOnUse" x1="664.188" y1="5866.5742" x2="772.1147" y2="5866.5742" gradientTransform="matrix(1 0 0 -1 0 6132.123)">
			<stop  offset="5.400000e-007" style="stop-color:#24122F"/>
			<stop  offset="1" style="stop-color:#251933"/>
		</linearGradient>
		<path fill="url(#SVGID_19_)" d="M674.161,332.26l46.812-4.29c4.701,0,9.67-3.552,11.083-7.94l39.666-107.907
			c1.568-4.827-1.567-13.27-9.286-13.27l-54.682-0.017c-5.069,0-10.353,4.115-11.767,9.146L664.481,320.03
			C663.246,324.418,665.813,332.26,674.161,332.26z"/>
		<path fill="#6A67F2" d="M674.161,332.26h50.069c4.689,0,9.652-3.535,11.07-7.901l36.204-111.441
			c1.568-4.82-0.961-8.794-5.671-9.076l-54.528-0.018c-5.056,0-10.33,4.09-11.751,9.094l-31.652,111.441
			C666.663,328.725,669.472,332.26,674.161,332.26z"/>
		<path fill="#B8DE57" d="M701.344,246.282h13.29c1.243,0,2.552-0.986,2.915-2.199l8.821-29.445c0.363-1.209-0.3-2.206-1.483-2.274
			l-13.686-0.005c-1.27,0-2.598,1.024-2.961,2.279l-8.517,29.445C699.372,245.296,700.099,246.282,701.344,246.282z"/>
	</g>
	<g>
		<path fill="#FBA19B" d="M736.971,272.393c1.797,1.49,3.747,2.97,7.581,5.448c3.833,2.479,7.41-27.639,15.589-27.639
			c8.415,0-0.317,21.806-0.989,41.092c-0.537,15.379-9.03,21.134-11.025,24.341c-2.984,4.8-6.695,20.1-18.65,22.6
			c-1.379,0.289-7.692,14.542-9.166,14.542c-28.369,0-28.41-20.509-28.41-20.509l19.125,0.12
			c-14.61-12.06-22.145-34.611-10.714-33.039c0,0-6.37-11.664,6.596-12.753c0,0-1.007-14.696,10.927-10.646
			C717.835,275.951,718.032,256.682,736.971,272.393z"/>
		<linearGradient id="SVGID_20_" gradientUnits="userSpaceOnUse" x1="717.8354" y1="281.5215" x2="730.4746" y2="281.5215">
			<stop  offset="5.400000e-007" style="stop-color:#24122F"/>
			<stop  offset="1" style="stop-color:#251933"/>
		</linearGradient>
		<path fill="url(#SVGID_20_)" d="M717.835,275.951c2.599,1.317,4.809,3.044,6.932,4.875c2.084,1.872,4.075,3.848,5.707,6.267
			c-2.582-1.295-4.805-3.032-6.931-4.873C721.455,280.336,719.448,278.35,717.835,275.951z"/>
		<linearGradient id="SVGID_21_" gradientUnits="userSpaceOnUse" x1="706.8872" y1="294.1299" x2="723.7896" y2="294.1299">
			<stop  offset="5.400000e-007" style="stop-color:#24122F"/>
			<stop  offset="1" style="stop-color:#251933"/>
		</linearGradient>
		<path fill="url(#SVGID_21_)" d="M706.887,286.632c3.192,2.131,6.025,4.594,8.83,7.088c2.774,2.535,5.47,5.096,8.073,7.907
			c-1.755-0.793-3.365-1.832-4.906-2.942c-1.551-1.102-2.992-2.334-4.413-3.587C711.687,292.536,709.051,289.806,706.887,286.632z"
			/>
		<linearGradient id="SVGID_22_" gradientUnits="userSpaceOnUse" x1="700.1616" y1="305.2725" x2="710.1265" y2="305.2725">
			<stop  offset="5.400000e-007" style="stop-color:#24122F"/>
			<stop  offset="1" style="stop-color:#251933"/>
		</linearGradient>
		<path fill="url(#SVGID_22_)" d="M700.162,299.35c1.804,1.996,3.35,3.979,5,5.912c0.798,0.986,1.632,1.938,2.459,2.913
			c0.819,0.987,1.689,1.925,2.505,3.021c-2.54-0.943-4.675-2.705-6.389-4.743c-0.847-1.034-1.615-2.133-2.225-3.324
			C700.896,301.946,700.385,300.693,700.162,299.35z"/>
	</g>
</g>
<g>
	<path fill="#6A67F2" d="M1219.807,952.873h376.61c0,0,70.734-51.617,69.779-186.394c-0.956-134.778-47.793-237.055-122.351-269.555
		c-74.558-32.499-124.264-0.955-160.587,93.675c-36.321,94.63-211.245,72.646-230.363,146.247
		C1133.777,810.449,1118.485,952.873,1219.807,952.873z"/>
	<path d="M1453.542,497.64c1.052-2.783,3.055-5.234,3.475-8.182c0.56-3.926-1.798-7.606-2.826-11.439
		c-1.346-5.018-0.282-10.628,2.802-14.809c4.321-5.854,12.111-8.769,15.405-15.257c3.06-6.029,1.437-13.713,4.83-19.56
		c2.573-4.432,7.523-8.537,12.395-10.127c0.92-0.3,6.25-1.328,7.67-1.382c5.118-0.194,10.618,2.042,14.567,5.304
		c5.21,4.308,6.352,12.079,11.311,16.673c5.338,4.944,13.655,4.979,19.738,8.973c4.344,2.851,7.284,7.744,7.763,12.919
		c0.365,3.949-0.572,8.218,1.314,11.71c1.416,2.615,4.145,4.222,6.097,6.467c4.144,4.77,4.298,12.027,2.027,17.924
		c-2.269,5.896-8.838,9.451-10.768,15.467c-3.004,9.376-23.29,9.663-37.063,11.959c-23.092,3.854-50.256-4.383-54.43-9.126
		C1453.678,510.41,1451.306,503.55,1453.542,497.64z"/>
	<path fill="#B8DE57" d="M1502.106,500.749c0,0,41.103,22.621,65.636,29.95c24.533,7.328,38.871,82.803,27.402,145.889
		c-11.472,63.088-27.562,94.989-50.026,108.372c0,0-41.661-11.083-33.535-45.015c8.123-33.935-152.22-94.86-152.22-94.86
		s34.442-75.24,56.268-107.581c21.827-32.34,43.619-28.948,63.056-35.641C1498.123,495.171,1502.106,500.749,1502.106,500.749z"/>
	<g>
		
			<linearGradient id="SVGID_23_" gradientUnits="userSpaceOnUse" x1="4189.6445" y1="-9.2339" x2="4241.415" y2="-9.2339" gradientTransform="matrix(-0.9836 0.1805 0.1617 0.8812 5611.0137 -143.3699)">
			<stop  offset="0" style="stop-color:#FFFFFF"/>
			<stop  offset="1" style="stop-color:#F1E5F3"/>
		</linearGradient>
		<path fill="url(#SVGID_23_)" d="M1449.187,676.86l1.333-0.219c-4.285-26.243,6.031-41.132,15.133-54.269
			c7.113-10.268,13.257-19.133,9.584-30.802c-7.896-25.093,1.856-48.7,1.957-48.936l-1.243-0.525
			c-0.102,0.24-10.043,24.305-2,49.867c3.474,11.037-2.497,19.65-9.408,29.626C1455.754,634.291,1444.813,650.077,1449.187,676.86z"
			/>
	</g>
	<path fill="#B8DE57" d="M1569.055,531.456c24.489,7.86,51.26,48.628,54.126,90.688c2.869,42.058,35.847,121.394-37.278,120.917
		c-73.123-0.479-54.005-86.984-41.579-92.719c0,0-8.189-41.03-1.913-77.428C1548.688,536.521,1556.724,527.494,1569.055,531.456z"/>
	<path fill="#FBA19B" d="M1400.705,610.195c-4.018-0.486,65.744,25.499,98.922,31.079c29.959,5.038,60.963,5.796,87.369,14.876
		s29.804,40.904,25.502,56.198c-4.301,15.294-16.559,29.517-40.933,24.021c-24.375-5.496-29.846-8.716-69.93-36.653
		c-40.085-27.937-72.735-47.16-92.091-62.691C1390.188,621.491,1400.705,610.195,1400.705,610.195z"/>
	<g>
		<path fill="#6A67F2" d="M1417.521,625.729l-33.268-133.072c-1.227-4.907-6.195-7.897-11.106-6.681l-140.919,34.911
			c-4.93,1.22-7.928,6.214-6.694,11.139l29.412,117.201L1417.521,625.729z"/>
		<path fill="#BDBFF8" d="M1414.325,625.967l-33.153-132.618c-1.224-4.892-6.176-7.87-11.068-6.658l-140.44,34.792
			c-4.911,1.217-7.901,6.192-6.67,11.101l29.312,116.8L1414.325,625.967z"/>
		<polygon fill="#6A67F2" points="1414.325,625.967 1497.738,671.026 1327.018,695.111 1254.946,649.226 		"/>
	</g>
	<path fill="#FBA19B" d="M1339.927,799.297c-69.68-15.655-128.843-129.372-140.931-162.785
		c-12.085-33.413,17.197-68.013,74.649-44.654s118.883,64.947,147.566,105.033C1449.894,736.975,1411.856,815.457,1339.927,799.297z
		"/>
	<path fill="#FBA19B" d="M1480.933,477.948l-1.662,25.43c-2.576,8.841,9.919,10.416,9.919,10.416s14.092,0.695,19.865-9.122
		l-0.068-37.336C1508.986,467.336,1498.368,472.354,1480.933,477.948z"/>
	<path fill="#FBA19B" d="M1187.284,628.392c8.407,59.839,44.01,152.747,52.078,224.137c0,0,17.758,13.487,68.088,18.496
		c-15.406-33.754,55.764-168.659,2.75-241.344C1255.45,554.615,1180.937,583.212,1187.284,628.392z"/>
	<path fill="#F28077" d="M1310.2,629.681c-16.729-22.94-35.308-36.195-52.856-42.259c2.438,2.781,4.604,5.965,6.38,9.623
		c9.273,19.077-0.543,41.022-18.679,50.812c-8.075,4.359-16.722,5.903-25.052,4.932c-7.109-0.533-14.117-3.012-19.79-7.131
		c-5.277-3.835-9.123-8.079-11.528-13.739c-0.327-0.236-0.65-0.478-0.966-0.729c9.087,59.907,43.709,151.043,51.653,221.34
		c0,0,17.758,13.487,68.088,18.496C1292.044,837.271,1363.214,702.365,1310.2,629.681z"/>
	<g>
		<linearGradient id="SVGID_24_" gradientUnits="userSpaceOnUse" x1="1312.7002" y1="881.96" x2="1227.2871" y2="886.9517">
			<stop  offset="0" style="stop-color:#7EBEF6"/>
			<stop  offset="1" style="stop-color:#7F53E9"/>
		</linearGradient>
		<path fill="url(#SVGID_24_)" d="M1313.025,852.533c0,0,9.58,42.514,6.748,60.019c-3.018,18.648-92.709,32.669-158.964,12.075
			c0,0-1.367-28.731,20.831-28.668c22.199,0.067,39.584-9.828,44.758-26.015c5.174-16.186-0.445-29.91-0.445-29.91
			S1307.509,825.189,1313.025,852.533z"/>
		<path fill="#FFFFFF" d="M1246.688,912.02c-21.456-3.277-65.904-7.736-69.863-7.747c-22.199-0.064-22.164,18.812-17.165,24.326
			c46.604,51.398,157.097,2.602,160.114-16.047c0.782-4.835,0.904-8.574,0.506-11.674
			C1290.234,893.184,1277.533,916.732,1246.688,912.02z"/>
		<path d="M1319.334,910.939c-0.412-3.4-9.939-3.56-32.621,5.877c-22.682,9.436-51.437,3.23-75.111-0.67
			c-23.672-3.902-40.891-3.796-48.676,5.92c-7.785,9.717,9.12,19.508,32.516,24.654c23.675,5.203,56.461,6.232,89.872-8.303
			C1318.725,923.882,1320.381,919.588,1319.334,910.939z"/>
		<g>
			
				<rect x="1169.165" y="928.498" transform="matrix(-0.3802 -0.9249 0.9249 -0.3802 772.6342 2376.531)" fill="#FFFFFF" width="26.805" height="1.797"/>
		</g>
		<g>
			
				<rect x="1189.738" y="930.376" transform="matrix(-0.3802 -0.9249 0.9249 -0.3802 799.2638 2398.1416)" fill="#FFFFFF" width="26.804" height="1.796"/>
		</g>
		<g>
			
				<rect x="1210.311" y="932.253" transform="matrix(-0.3802 -0.9249 0.9249 -0.3802 825.8922 2419.7524)" fill="#FFFFFF" width="26.803" height="1.797"/>
		</g>
		<g>
			
				<rect x="1236.006" y="934.128" transform="matrix(-0.3801 -0.9249 0.9249 -0.3801 852.3854 2441.3286)" fill="#FFFFFF" width="16.561" height="1.8"/>
		</g>
		<g>
			
				<rect x="1254.964" y="931.829" transform="matrix(-0.3803 -0.9249 0.9249 -0.3803 879.0211 2454.4658)" fill="#FFFFFF" width="13.778" height="1.796"/>
		</g>
		<g>
			
				<rect x="1273.843" y="927.643" transform="matrix(-0.3802 -0.9249 0.9249 -0.3802 908.91 2466.1404)" fill="#FFFFFF" width="13.779" height="1.796"/>
		</g>
		<g>
			
				<rect x="1293.908" y="919.862" transform="matrix(-0.3802 -0.9249 0.9249 -0.3802 943.8002 2473.9597)" fill="#FFFFFF" width="13.779" height="1.797"/>
		</g>
	</g>
	<path fill="#F28077" d="M1482.549,493.366c7.981,3.172,19.876,2.165,26.477-4.831l-0.039-21.2c0,0-10.617,5.813-28.051,12.291
		l-0.938,11.34C1480.519,491.096,1482.008,493.151,1482.549,493.366z"/>
	<path fill="#FBA19B" d="M1486.374,808.857c-71.417,0-161.726-84.031-180.844-113.982s-0.015-72.095,61.161-61.898
		c61.175,10.195,137.194,32.814,173.968,65.635C1577.432,731.435,1560.096,808.857,1486.374,808.857z"/>
	<path fill="#FFFFFF" d="M1540.659,698.611c-36.773-32.82-112.793-55.439-173.968-65.635c-5.443-0.907-10.534-1.382-15.313-1.507
		c15.544,9.207,32.394,17.804,43.982,32.08c14.664,18.067,15.236,39.521,16.81,61.774c1.391,19.666,1.497,40.131-1.51,59.891
		c25.068,13.956,51.478,23.64,75.714,23.64C1560.096,808.854,1577.432,731.435,1540.659,698.611z"/>
	<path fill="#F28077" d="M1400.891,745.43c-0.258-15.682-3.793-32.022-11.311-45.205c-3.222-5.649-6.646-10.231-11.477-15.117
		c-3,12.405-7.746,24.685-11.644,36.294c-3.043,9.062-3.75,19.378-7.455,28.272c12.569,10.281,26.516,20.45,41.116,29.383
		C1400.61,767.841,1401.076,756.626,1400.891,745.43z"/>
	<path fill="#6A67F2" d="M1323.004,819.079c0,0,27.863-49.588,96.812-49.588c48.171,0,88.313,7.98,132.233,46.738L1323.004,819.079z
		"/>
	<path fill="#FBA19B" d="M1305.993,648.907c-42.81,42.645-95.745,126.891-148,176.198c0,0-0.126,22.298,26.081,65.559
		c17.75-32.584,168.366-56.646,194.674-142.678C1405.919,659.138,1338.315,616.71,1305.993,648.907z"/>
	<g>
		
			<linearGradient id="SVGID_25_" gradientUnits="userSpaceOnUse" x1="5626.9844" y1="1686.1104" x2="5804.9688" y2="1686.1104" gradientTransform="matrix(-0.9384 -0.3456 -0.3456 0.9384 7058.6812 1258.3928)">
			<stop  offset="0" style="stop-color:#7EBEF6"/>
			<stop  offset="1" style="stop-color:#7F53E9"/>
		</linearGradient>
		<path fill="url(#SVGID_25_)" d="M1174.015,858.086c-2.876-7.452,3.223-12.213,5.595-18.658
			c4.318-11.725-22.265-25.81-23.39-26.868c-21.521,25.59-54.556,24.896-69.487,3.132c-21.523-31.373-45.236-16.324-45.236-16.324
			l102.682,146.538c33.098-19.791,42.162-40.345,54.916-59.441C1194.5,866.354,1179.11,871.292,1174.015,858.086z"/>
		<path fill="#FFFFFF" d="M1150.883,943.508c-8.839,5.79-17.699,21.295-44.657-19.861c-10.688-16.319-48.574-77.941-58.268-98.284
			c-14.75-30.959-3.683-25.718,1.653-29.212c8.841-5.791,37.859,22.879,64.816,64.035
			C1141.387,901.34,1159.723,937.716,1150.883,943.508z"/>
		
			<ellipse transform="matrix(0.5479 0.8365 -0.8365 0.5479 1224.0537 -515.3485)" cx="1088.835" cy="874.838" rx="89.88" ry="19.135"/>
		<g>
			
				<rect x="1104.837" y="927.839" transform="matrix(-0.9384 -0.3456 0.3456 -0.9384 1849.8949 2187.2795)" fill="#FFFFFF" width="30.175" height="1.797"/>
		</g>
		<g>
			
				<rect x="1093.259" y="906.745" transform="matrix(-0.9384 -0.3456 0.3456 -0.9384 1834.6826 2142.4248)" fill="#FFFFFF" width="30.176" height="1.797"/>
		</g>
		<g>
			
				<rect x="1081.687" y="885.65" transform="matrix(-0.9384 -0.3456 0.3456 -0.9384 1819.6003 2097.4995)" fill="#FFFFFF" width="30.175" height="1.797"/>
		</g>
		<g>
			
				<rect x="1070.109" y="864.555" transform="matrix(-0.9384 -0.3456 0.3456 -0.9384 1804.4274 2052.624)" fill="#FFFFFF" width="30.176" height="1.797"/>
		</g>
		<g>
			
				<rect x="1058.534" y="843.462" transform="matrix(-0.9384 -0.3456 0.3456 -0.9384 1789.3357 2007.7001)" fill="#FFFFFF" width="30.174" height="1.797"/>
		</g>
		<g>
			
				<rect x="1046.957" y="822.366" transform="matrix(-0.9384 -0.3456 0.3456 -0.9384 1774.1777 1962.8157)" fill="#FFFFFF" width="30.176" height="1.8"/>
		</g>
		<g>
			
				<linearGradient id="SVGID_26_" gradientUnits="userSpaceOnUse" x1="5690.6016" y1="1656.2813" x2="5719.6445" y2="1656.2813" gradientTransform="matrix(-0.9384 -0.3456 -0.3456 0.9384 7058.6812 1258.3928)">
				<stop  offset="5.400000e-007" style="stop-color:#24122F"/>
				<stop  offset="1" style="stop-color:#251933"/>
			</linearGradient>
			<path fill="url(#SVGID_26_)" d="M1141.769,853.526l1.772-0.303c-3.327-19.578-21.42-25.314-21.61-25.363l-0.525,1.718
				C1121.574,829.642,1138.634,835.063,1141.769,853.526z"/>
		</g>
		<g>
			
				<linearGradient id="SVGID_27_" gradientUnits="userSpaceOnUse" x1="5709.0684" y1="1661.8223" x2="5738.1104" y2="1661.8223" gradientTransform="matrix(-0.9384 -0.3456 -0.3456 0.9384 7058.6812 1258.3928)">
				<stop  offset="5.400000e-007" style="stop-color:#24122F"/>
				<stop  offset="1" style="stop-color:#251933"/>
			</linearGradient>
			<path fill="url(#SVGID_27_)" d="M1122.524,852.344l1.771-0.3c-3.32-19.58-21.418-25.312-21.607-25.366l-0.523,1.719
				C1102.323,828.456,1119.393,833.875,1122.524,852.344z"/>
		</g>
	</g>
	<g>
		<path fill="#FBA19B" d="M1481.839,492.944c8.241-0.057,23.271-11.282,26.603-18.817c1.188-2.687,0.719-9.819-0.362-13.266
			c-3.413-10.798-6.149-20.593-14.535-23.553c-3.534-1.24-7.027-1.25-10.279-0.578c-10.715,2.245-18.239,11.94-18.304,22.88
			C1464.884,471.886,1467.313,493.047,1481.839,492.944z"/>
		<g>
			<path fill="#331B0A" d="M1476.31,473.685c-0.799-0.217-4.814-1.395-5.446-3.313c-0.199-0.604-0.072-1.237,0.357-1.782
				c2.899-3.657,2.323-8.609,2.158-9.67c-0.526-0.553-2.627-2.422-5.912-1.322l-0.518-1.543c4.835-1.636,7.708,1.838,7.828,1.986
				l0.124,0.154l0.04,0.193c0.054,0.265,1.284,6.51-2.442,11.213c-0.123,0.156-0.102,0.22-0.09,0.261
				c0.233,0.707,2.425,1.734,4.326,2.25L1476.31,473.685z"/>
		</g>
		<path d="M1506.5,454.902c0,0-13.456,12.018-32.724-13.674c0,0-5.422,3.639-8.092,13.021c0,0-4.84-18.614,16.179-23.257
			C1502.303,426.474,1507.778,446.34,1506.5,454.902z"/>
		<path fill="#FBA19B" d="M1472.959,442.429c0.203-0.807,0.479-1.486,0.812-2.182c0.331-0.686,0.728-1.338,1.189-1.94
			c0.923-1.199,2.199-2.134,3.609-2.499c-1.319,0.628-2.299,1.712-2.925,2.942c-0.311,0.617-0.553,1.266-0.732,1.929
			c-0.175,0.652-0.308,1.366-0.342,1.981L1472.959,442.429z"/>
		<circle fill="#FBA19B" cx="1509.698" cy="461.874" r="7.7"/>
		<g>
			<path fill="#F28077" d="M1510.732,467.627c-0.574,0-1.096-0.22-1.517-0.64c-1.057-1.059-0.601-2.077-0.268-2.821
				c0.268-0.601,0.547-1.225,0.405-2.159c-0.071-0.467-0.563-0.896-1.084-1.347c-0.858-0.747-2.297-1.998-0.853-3.865
				c0.576-0.744,1.32-1.184,2.154-1.268c1.537-0.133,2.861,0.929,3.005,1.054l-1.064,1.233l0.533-0.617l-0.53,0.619
				c-0.249-0.212-1.045-0.73-1.785-0.667c-0.386,0.041-0.722,0.25-1.023,0.642c-0.433,0.562-0.426,0.719,0.634,1.639
				c0.652,0.568,1.464,1.272,1.624,2.333c0.213,1.408-0.217,2.367-0.528,3.068c-0.331,0.74-0.305,0.764-0.066,1.004
				c0.116,0.117,0.213,0.145,0.379,0.162c0.544-0.013,1.314-0.67,1.584-0.97l1.209,1.092c-0.136,0.149-1.365,1.472-2.75,1.509
				C1510.771,467.627,1510.752,467.627,1510.732,467.627z"/>
		</g>
		<g>
			<path fill="#331B0A" d="M1475.623,481.618c-0.204,0-0.335-0.005-0.372-0.008l0.081-1.625c0.078,0.002,7.088,0.277,9.705-4.998
				l1.462,0.726C1483.742,481.257,1477.265,481.618,1475.623,481.618z"/>
		</g>
		<path d="M1485.137,461.233c0.016,0.105,0.031,0.208,0.031,0.317c0,1.13-0.915,2.044-2.045,2.044s-2.044-0.914-2.044-2.044
			c0-0.481,0.172-0.917,0.449-1.265C1482.682,460.767,1483.896,461.081,1485.137,461.233z"/>
		<path d="M1471.686,461.233c0.017,0.105,0.032,0.208,0.032,0.317c0,1.13-0.917,2.044-2.046,2.044c-1.13,0-2.045-0.914-2.045-2.044
			c0-0.481,0.172-0.917,0.45-1.265C1469.229,460.767,1470.446,461.081,1471.686,461.233z"/>
		<g>
			<path fill="#331B0A" d="M1487.475,458.415c-6.153-3.176-7.905-0.662-7.923-0.639l-1.391-0.848
				c0.097-0.164,2.438-3.896,10.061,0.04L1487.475,458.415z"/>
		</g>
	</g>
	<g opacity="0.3">
		<ellipse fill="#FFFFFF" cx="1333.824" cy="662.018" rx="14.143" ry="11.926"/>
	</g>
</g>
</svg>
